<?xml version="1.0" encoding="utf-8" standalone="no"?>
<!DOCTYPE svg PUBLIC "-//W3C//DTD SVG 1.1//EN"
  "http://www.w3.org/Graphics/SVG/1.1/DTD/svg11.dtd">
<!-- Created with matplotlib (https://matplotlib.org/) -->
<svg height="288pt" version="1.1" viewBox="0 0 864 288" width="864pt" xmlns="http://www.w3.org/2000/svg" xmlns:xlink="http://www.w3.org/1999/xlink">
 <metadata>
  <rdf:RDF xmlns:cc="http://creativecommons.org/ns#" xmlns:dc="http://purl.org/dc/elements/1.1/" xmlns:rdf="http://www.w3.org/1999/02/22-rdf-syntax-ns#">
   <cc:Work>
    <dc:type rdf:resource="http://purl.org/dc/dcmitype/StillImage"/>
    <dc:date>2022-06-09T00:47:47.830832</dc:date>
    <dc:format>image/svg+xml</dc:format>
    <dc:creator>
     <cc:Agent>
      <dc:title>Matplotlib v3.3.2, https://matplotlib.org/</dc:title>
     </cc:Agent>
    </dc:creator>
   </cc:Work>
  </rdf:RDF>
 </metadata>
 <defs>
  <style type="text/css">*{stroke-linecap:butt;stroke-linejoin:round;}</style>
 </defs>
 <g id="figure_1">
  <g id="patch_1">
   <path d="M 0 288 
L 864 288 
L 864 0 
L 0 0 
z
" style="fill:#ffffff;"/>
  </g>
  <g id="axes_1">
   <g id="patch_2">
    <path d="M 47.72 246.04 
L 275.19 246.04 
L 275.19 38.52 
L 47.72 38.52 
z
" style="fill:#ffffff;"/>
   </g>
   <g id="matplotlib.axis_1">
    <g id="xtick_1">
     <g id="line2d_1">
      <defs>
       <path d="M 0 0 
L 0 3.5 
" id="m38476fba8b" style="stroke:#000000;stroke-width:0.8;"/>
      </defs>
      <g>
       <use style="stroke:#000000;stroke-width:0.8;" x="54.641124" xlink:href="#m38476fba8b" y="246.04"/>
      </g>
     </g>
     <g id="text_1">
      <!-- −0.3 -->
      <g transform="translate(42.499718 260.638438)scale(0.1 -0.1)">
       <defs>
        <path d="M 10.59375 35.5 
L 73.1875 35.5 
L 73.1875 27.203125 
L 10.59375 27.203125 
z
" id="DejaVuSans-8722"/>
        <path d="M 31.78125 66.40625 
Q 24.171875 66.40625 20.328125 58.90625 
Q 16.5 51.421875 16.5 36.375 
Q 16.5 21.390625 20.328125 13.890625 
Q 24.171875 6.390625 31.78125 6.390625 
Q 39.453125 6.390625 43.28125 13.890625 
Q 47.125 21.390625 47.125 36.375 
Q 47.125 51.421875 43.28125 58.90625 
Q 39.453125 66.40625 31.78125 66.40625 
z
M 31.78125 74.21875 
Q 44.046875 74.21875 50.515625 64.515625 
Q 56.984375 54.828125 56.984375 36.375 
Q 56.984375 17.96875 50.515625 8.265625 
Q 44.046875 -1.421875 31.78125 -1.421875 
Q 19.53125 -1.421875 13.0625 8.265625 
Q 6.59375 17.96875 6.59375 36.375 
Q 6.59375 54.828125 13.0625 64.515625 
Q 19.53125 74.21875 31.78125 74.21875 
z
" id="DejaVuSans-48"/>
        <path d="M 10.6875 12.40625 
L 21 12.40625 
L 21 0 
L 10.6875 0 
z
" id="DejaVuSans-46"/>
        <path d="M 40.578125 39.3125 
Q 47.65625 37.796875 51.625 33 
Q 55.609375 28.21875 55.609375 21.1875 
Q 55.609375 10.40625 48.1875 4.484375 
Q 40.765625 -1.421875 27.09375 -1.421875 
Q 22.515625 -1.421875 17.65625 -0.515625 
Q 12.796875 0.390625 7.625 2.203125 
L 7.625 11.71875 
Q 11.71875 9.328125 16.59375 8.109375 
Q 21.484375 6.890625 26.8125 6.890625 
Q 36.078125 6.890625 40.9375 10.546875 
Q 45.796875 14.203125 45.796875 21.1875 
Q 45.796875 27.640625 41.28125 31.265625 
Q 36.765625 34.90625 28.71875 34.90625 
L 20.21875 34.90625 
L 20.21875 43.015625 
L 29.109375 43.015625 
Q 36.375 43.015625 40.234375 45.921875 
Q 44.09375 48.828125 44.09375 54.296875 
Q 44.09375 59.90625 40.109375 62.90625 
Q 36.140625 65.921875 28.71875 65.921875 
Q 24.65625 65.921875 20.015625 65.03125 
Q 15.375 64.15625 9.8125 62.3125 
L 9.8125 71.09375 
Q 15.4375 72.65625 20.34375 73.4375 
Q 25.25 74.21875 29.59375 74.21875 
Q 40.828125 74.21875 47.359375 69.109375 
Q 53.90625 64.015625 53.90625 55.328125 
Q 53.90625 49.265625 50.4375 45.09375 
Q 46.96875 40.921875 40.578125 39.3125 
z
" id="DejaVuSans-51"/>
       </defs>
       <use xlink:href="#DejaVuSans-8722"/>
       <use x="83.789062" xlink:href="#DejaVuSans-48"/>
       <use x="147.412109" xlink:href="#DejaVuSans-46"/>
       <use x="179.199219" xlink:href="#DejaVuSans-51"/>
      </g>
     </g>
    </g>
    <g id="xtick_2">
     <g id="line2d_2">
      <g>
       <use style="stroke:#000000;stroke-width:0.8;" x="98.750899" xlink:href="#m38476fba8b" y="246.04"/>
      </g>
     </g>
     <g id="text_2">
      <!-- −0.2 -->
      <g transform="translate(86.609493 260.638438)scale(0.1 -0.1)">
       <defs>
        <path d="M 19.1875 8.296875 
L 53.609375 8.296875 
L 53.609375 0 
L 7.328125 0 
L 7.328125 8.296875 
Q 12.9375 14.109375 22.625 23.890625 
Q 32.328125 33.6875 34.8125 36.53125 
Q 39.546875 41.84375 41.421875 45.53125 
Q 43.3125 49.21875 43.3125 52.78125 
Q 43.3125 58.59375 39.234375 62.25 
Q 35.15625 65.921875 28.609375 65.921875 
Q 23.96875 65.921875 18.8125 64.3125 
Q 13.671875 62.703125 7.8125 59.421875 
L 7.8125 69.390625 
Q 13.765625 71.78125 18.9375 73 
Q 24.125 74.21875 28.421875 74.21875 
Q 39.75 74.21875 46.484375 68.546875 
Q 53.21875 62.890625 53.21875 53.421875 
Q 53.21875 48.921875 51.53125 44.890625 
Q 49.859375 40.875 45.40625 35.40625 
Q 44.1875 33.984375 37.640625 27.21875 
Q 31.109375 20.453125 19.1875 8.296875 
z
" id="DejaVuSans-50"/>
       </defs>
       <use xlink:href="#DejaVuSans-8722"/>
       <use x="83.789062" xlink:href="#DejaVuSans-48"/>
       <use x="147.412109" xlink:href="#DejaVuSans-46"/>
       <use x="179.199219" xlink:href="#DejaVuSans-50"/>
      </g>
     </g>
    </g>
    <g id="xtick_3">
     <g id="line2d_3">
      <g>
       <use style="stroke:#000000;stroke-width:0.8;" x="142.860674" xlink:href="#m38476fba8b" y="246.04"/>
      </g>
     </g>
     <g id="text_3">
      <!-- −0.1 -->
      <g transform="translate(130.719268 260.638438)scale(0.1 -0.1)">
       <defs>
        <path d="M 12.40625 8.296875 
L 28.515625 8.296875 
L 28.515625 63.921875 
L 10.984375 60.40625 
L 10.984375 69.390625 
L 28.421875 72.90625 
L 38.28125 72.90625 
L 38.28125 8.296875 
L 54.390625 8.296875 
L 54.390625 0 
L 12.40625 0 
z
" id="DejaVuSans-49"/>
       </defs>
       <use xlink:href="#DejaVuSans-8722"/>
       <use x="83.789062" xlink:href="#DejaVuSans-48"/>
       <use x="147.412109" xlink:href="#DejaVuSans-46"/>
       <use x="179.199219" xlink:href="#DejaVuSans-49"/>
      </g>
     </g>
    </g>
    <g id="xtick_4">
     <g id="line2d_4">
      <g>
       <use style="stroke:#000000;stroke-width:0.8;" x="186.97045" xlink:href="#m38476fba8b" y="246.04"/>
      </g>
     </g>
     <g id="text_4">
      <!-- 0.0 -->
      <g transform="translate(179.018887 260.638438)scale(0.1 -0.1)">
       <use xlink:href="#DejaVuSans-48"/>
       <use x="63.623047" xlink:href="#DejaVuSans-46"/>
       <use x="95.410156" xlink:href="#DejaVuSans-48"/>
      </g>
     </g>
    </g>
    <g id="xtick_5">
     <g id="line2d_5">
      <g>
       <use style="stroke:#000000;stroke-width:0.8;" x="231.080225" xlink:href="#m38476fba8b" y="246.04"/>
      </g>
     </g>
     <g id="text_5">
      <!-- 0.1 -->
      <g transform="translate(223.128662 260.638438)scale(0.1 -0.1)">
       <use xlink:href="#DejaVuSans-48"/>
       <use x="63.623047" xlink:href="#DejaVuSans-46"/>
       <use x="95.410156" xlink:href="#DejaVuSans-49"/>
      </g>
     </g>
    </g>
    <g id="xtick_6">
     <g id="line2d_6">
      <g>
       <use style="stroke:#000000;stroke-width:0.8;" x="275.19" xlink:href="#m38476fba8b" y="246.04"/>
      </g>
     </g>
     <g id="text_6">
      <!-- 0.2 -->
      <g transform="translate(267.238438 260.638438)scale(0.1 -0.1)">
       <use xlink:href="#DejaVuSans-48"/>
       <use x="63.623047" xlink:href="#DejaVuSans-46"/>
       <use x="95.410156" xlink:href="#DejaVuSans-50"/>
      </g>
     </g>
    </g>
    <g id="text_7">
     <!-- X [m] -->
     <g transform="translate(147.669063 274.316562)scale(0.1 -0.1)">
      <defs>
       <path d="M 6.296875 72.90625 
L 16.890625 72.90625 
L 35.015625 45.796875 
L 53.21875 72.90625 
L 63.8125 72.90625 
L 40.375 37.890625 
L 65.375 0 
L 54.78125 0 
L 34.28125 31 
L 13.625 0 
L 2.984375 0 
L 29 38.921875 
z
" id="DejaVuSans-88"/>
       <path id="DejaVuSans-32"/>
       <path d="M 8.59375 75.984375 
L 29.296875 75.984375 
L 29.296875 69 
L 17.578125 69 
L 17.578125 -6.203125 
L 29.296875 -6.203125 
L 29.296875 -13.1875 
L 8.59375 -13.1875 
z
" id="DejaVuSans-91"/>
       <path d="M 52 44.1875 
Q 55.375 50.25 60.0625 53.125 
Q 64.75 56 71.09375 56 
Q 79.640625 56 84.28125 50.015625 
Q 88.921875 44.046875 88.921875 33.015625 
L 88.921875 0 
L 79.890625 0 
L 79.890625 32.71875 
Q 79.890625 40.578125 77.09375 44.375 
Q 74.3125 48.1875 68.609375 48.1875 
Q 61.625 48.1875 57.5625 43.546875 
Q 53.515625 38.921875 53.515625 30.90625 
L 53.515625 0 
L 44.484375 0 
L 44.484375 32.71875 
Q 44.484375 40.625 41.703125 44.40625 
Q 38.921875 48.1875 33.109375 48.1875 
Q 26.21875 48.1875 22.15625 43.53125 
Q 18.109375 38.875 18.109375 30.90625 
L 18.109375 0 
L 9.078125 0 
L 9.078125 54.6875 
L 18.109375 54.6875 
L 18.109375 46.1875 
Q 21.1875 51.21875 25.484375 53.609375 
Q 29.78125 56 35.6875 56 
Q 41.65625 56 45.828125 52.96875 
Q 50 49.953125 52 44.1875 
z
" id="DejaVuSans-109"/>
       <path d="M 30.421875 75.984375 
L 30.421875 -13.1875 
L 9.71875 -13.1875 
L 9.71875 -6.203125 
L 21.390625 -6.203125 
L 21.390625 69 
L 9.71875 69 
L 9.71875 75.984375 
z
" id="DejaVuSans-93"/>
      </defs>
      <use xlink:href="#DejaVuSans-88"/>
      <use x="68.505859" xlink:href="#DejaVuSans-32"/>
      <use x="100.292969" xlink:href="#DejaVuSans-91"/>
      <use x="139.306641" xlink:href="#DejaVuSans-109"/>
      <use x="236.71875" xlink:href="#DejaVuSans-93"/>
     </g>
    </g>
   </g>
   <g id="matplotlib.axis_2">
    <g id="ytick_1">
     <g id="line2d_7">
      <defs>
       <path d="M 0 0 
L -3.5 0 
" id="m20a155a8fb" style="stroke:#000000;stroke-width:0.8;"/>
      </defs>
      <g>
       <use style="stroke:#000000;stroke-width:0.8;" x="47.72" xlink:href="#m20a155a8fb" y="246.04"/>
      </g>
     </g>
     <g id="text_8">
      <!-- 0.0 -->
      <g transform="translate(24.816875 249.839219)scale(0.1 -0.1)">
       <use xlink:href="#DejaVuSans-48"/>
       <use x="63.623047" xlink:href="#DejaVuSans-46"/>
       <use x="95.410156" xlink:href="#DejaVuSans-48"/>
      </g>
     </g>
    </g>
    <g id="ytick_2">
     <g id="line2d_8">
      <g>
       <use style="stroke:#000000;stroke-width:0.8;" x="47.72" xlink:href="#m20a155a8fb" y="220.1"/>
      </g>
     </g>
     <g id="text_9">
      <!-- 0.1 -->
      <g transform="translate(24.816875 223.899219)scale(0.1 -0.1)">
       <use xlink:href="#DejaVuSans-48"/>
       <use x="63.623047" xlink:href="#DejaVuSans-46"/>
       <use x="95.410156" xlink:href="#DejaVuSans-49"/>
      </g>
     </g>
    </g>
    <g id="ytick_3">
     <g id="line2d_9">
      <g>
       <use style="stroke:#000000;stroke-width:0.8;" x="47.72" xlink:href="#m20a155a8fb" y="194.16"/>
      </g>
     </g>
     <g id="text_10">
      <!-- 0.2 -->
      <g transform="translate(24.816875 197.959219)scale(0.1 -0.1)">
       <use xlink:href="#DejaVuSans-48"/>
       <use x="63.623047" xlink:href="#DejaVuSans-46"/>
       <use x="95.410156" xlink:href="#DejaVuSans-50"/>
      </g>
     </g>
    </g>
    <g id="ytick_4">
     <g id="line2d_10">
      <g>
       <use style="stroke:#000000;stroke-width:0.8;" x="47.72" xlink:href="#m20a155a8fb" y="168.22"/>
      </g>
     </g>
     <g id="text_11">
      <!-- 0.3 -->
      <g transform="translate(24.816875 172.019219)scale(0.1 -0.1)">
       <use xlink:href="#DejaVuSans-48"/>
       <use x="63.623047" xlink:href="#DejaVuSans-46"/>
       <use x="95.410156" xlink:href="#DejaVuSans-51"/>
      </g>
     </g>
    </g>
    <g id="ytick_5">
     <g id="line2d_11">
      <g>
       <use style="stroke:#000000;stroke-width:0.8;" x="47.72" xlink:href="#m20a155a8fb" y="142.28"/>
      </g>
     </g>
     <g id="text_12">
      <!-- 0.4 -->
      <g transform="translate(24.816875 146.079219)scale(0.1 -0.1)">
       <defs>
        <path d="M 37.796875 64.3125 
L 12.890625 25.390625 
L 37.796875 25.390625 
z
M 35.203125 72.90625 
L 47.609375 72.90625 
L 47.609375 25.390625 
L 58.015625 25.390625 
L 58.015625 17.1875 
L 47.609375 17.1875 
L 47.609375 0 
L 37.796875 0 
L 37.796875 17.1875 
L 4.890625 17.1875 
L 4.890625 26.703125 
z
" id="DejaVuSans-52"/>
       </defs>
       <use xlink:href="#DejaVuSans-48"/>
       <use x="63.623047" xlink:href="#DejaVuSans-46"/>
       <use x="95.410156" xlink:href="#DejaVuSans-52"/>
      </g>
     </g>
    </g>
    <g id="ytick_6">
     <g id="line2d_12">
      <g>
       <use style="stroke:#000000;stroke-width:0.8;" x="47.72" xlink:href="#m20a155a8fb" y="116.34"/>
      </g>
     </g>
     <g id="text_13">
      <!-- 0.5 -->
      <g transform="translate(24.816875 120.139219)scale(0.1 -0.1)">
       <defs>
        <path d="M 10.796875 72.90625 
L 49.515625 72.90625 
L 49.515625 64.59375 
L 19.828125 64.59375 
L 19.828125 46.734375 
Q 21.96875 47.46875 24.109375 47.828125 
Q 26.265625 48.1875 28.421875 48.1875 
Q 40.625 48.1875 47.75 41.5 
Q 54.890625 34.8125 54.890625 23.390625 
Q 54.890625 11.625 47.5625 5.09375 
Q 40.234375 -1.421875 26.90625 -1.421875 
Q 22.3125 -1.421875 17.546875 -0.640625 
Q 12.796875 0.140625 7.71875 1.703125 
L 7.71875 11.625 
Q 12.109375 9.234375 16.796875 8.0625 
Q 21.484375 6.890625 26.703125 6.890625 
Q 35.15625 6.890625 40.078125 11.328125 
Q 45.015625 15.765625 45.015625 23.390625 
Q 45.015625 31 40.078125 35.4375 
Q 35.15625 39.890625 26.703125 39.890625 
Q 22.75 39.890625 18.8125 39.015625 
Q 14.890625 38.140625 10.796875 36.28125 
z
" id="DejaVuSans-53"/>
       </defs>
       <use xlink:href="#DejaVuSans-48"/>
       <use x="63.623047" xlink:href="#DejaVuSans-46"/>
       <use x="95.410156" xlink:href="#DejaVuSans-53"/>
      </g>
     </g>
    </g>
    <g id="ytick_7">
     <g id="line2d_13">
      <g>
       <use style="stroke:#000000;stroke-width:0.8;" x="47.72" xlink:href="#m20a155a8fb" y="90.4"/>
      </g>
     </g>
     <g id="text_14">
      <!-- 0.6 -->
      <g transform="translate(24.816875 94.199219)scale(0.1 -0.1)">
       <defs>
        <path d="M 33.015625 40.375 
Q 26.375 40.375 22.484375 35.828125 
Q 18.609375 31.296875 18.609375 23.390625 
Q 18.609375 15.53125 22.484375 10.953125 
Q 26.375 6.390625 33.015625 6.390625 
Q 39.65625 6.390625 43.53125 10.953125 
Q 47.40625 15.53125 47.40625 23.390625 
Q 47.40625 31.296875 43.53125 35.828125 
Q 39.65625 40.375 33.015625 40.375 
z
M 52.59375 71.296875 
L 52.59375 62.3125 
Q 48.875 64.0625 45.09375 64.984375 
Q 41.3125 65.921875 37.59375 65.921875 
Q 27.828125 65.921875 22.671875 59.328125 
Q 17.53125 52.734375 16.796875 39.40625 
Q 19.671875 43.65625 24.015625 45.921875 
Q 28.375 48.1875 33.59375 48.1875 
Q 44.578125 48.1875 50.953125 41.515625 
Q 57.328125 34.859375 57.328125 23.390625 
Q 57.328125 12.15625 50.6875 5.359375 
Q 44.046875 -1.421875 33.015625 -1.421875 
Q 20.359375 -1.421875 13.671875 8.265625 
Q 6.984375 17.96875 6.984375 36.375 
Q 6.984375 53.65625 15.1875 63.9375 
Q 23.390625 74.21875 37.203125 74.21875 
Q 40.921875 74.21875 44.703125 73.484375 
Q 48.484375 72.75 52.59375 71.296875 
z
" id="DejaVuSans-54"/>
       </defs>
       <use xlink:href="#DejaVuSans-48"/>
       <use x="63.623047" xlink:href="#DejaVuSans-46"/>
       <use x="95.410156" xlink:href="#DejaVuSans-54"/>
      </g>
     </g>
    </g>
    <g id="ytick_8">
     <g id="line2d_14">
      <g>
       <use style="stroke:#000000;stroke-width:0.8;" x="47.72" xlink:href="#m20a155a8fb" y="64.46"/>
      </g>
     </g>
     <g id="text_15">
      <!-- 0.7 -->
      <g transform="translate(24.816875 68.259219)scale(0.1 -0.1)">
       <defs>
        <path d="M 8.203125 72.90625 
L 55.078125 72.90625 
L 55.078125 68.703125 
L 28.609375 0 
L 18.3125 0 
L 43.21875 64.59375 
L 8.203125 64.59375 
z
" id="DejaVuSans-55"/>
       </defs>
       <use xlink:href="#DejaVuSans-48"/>
       <use x="63.623047" xlink:href="#DejaVuSans-46"/>
       <use x="95.410156" xlink:href="#DejaVuSans-55"/>
      </g>
     </g>
    </g>
    <g id="ytick_9">
     <g id="line2d_15">
      <g>
       <use style="stroke:#000000;stroke-width:0.8;" x="47.72" xlink:href="#m20a155a8fb" y="38.52"/>
      </g>
     </g>
     <g id="text_16">
      <!-- 0.8 -->
      <g transform="translate(24.816875 42.319219)scale(0.1 -0.1)">
       <defs>
        <path d="M 31.78125 34.625 
Q 24.75 34.625 20.71875 30.859375 
Q 16.703125 27.09375 16.703125 20.515625 
Q 16.703125 13.921875 20.71875 10.15625 
Q 24.75 6.390625 31.78125 6.390625 
Q 38.8125 6.390625 42.859375 10.171875 
Q 46.921875 13.96875 46.921875 20.515625 
Q 46.921875 27.09375 42.890625 30.859375 
Q 38.875 34.625 31.78125 34.625 
z
M 21.921875 38.8125 
Q 15.578125 40.375 12.03125 44.71875 
Q 8.5 49.078125 8.5 55.328125 
Q 8.5 64.0625 14.71875 69.140625 
Q 20.953125 74.21875 31.78125 74.21875 
Q 42.671875 74.21875 48.875 69.140625 
Q 55.078125 64.0625 55.078125 55.328125 
Q 55.078125 49.078125 51.53125 44.71875 
Q 48 40.375 41.703125 38.8125 
Q 48.828125 37.15625 52.796875 32.3125 
Q 56.78125 27.484375 56.78125 20.515625 
Q 56.78125 9.90625 50.3125 4.234375 
Q 43.84375 -1.421875 31.78125 -1.421875 
Q 19.734375 -1.421875 13.25 4.234375 
Q 6.78125 9.90625 6.78125 20.515625 
Q 6.78125 27.484375 10.78125 32.3125 
Q 14.796875 37.15625 21.921875 38.8125 
z
M 18.3125 54.390625 
Q 18.3125 48.734375 21.84375 45.5625 
Q 25.390625 42.390625 31.78125 42.390625 
Q 38.140625 42.390625 41.71875 45.5625 
Q 45.3125 48.734375 45.3125 54.390625 
Q 45.3125 60.0625 41.71875 63.234375 
Q 38.140625 66.40625 31.78125 66.40625 
Q 25.390625 66.40625 21.84375 63.234375 
Q 18.3125 60.0625 18.3125 54.390625 
z
" id="DejaVuSans-56"/>
       </defs>
       <use xlink:href="#DejaVuSans-48"/>
       <use x="63.623047" xlink:href="#DejaVuSans-46"/>
       <use x="95.410156" xlink:href="#DejaVuSans-56"/>
      </g>
     </g>
    </g>
    <g id="text_17">
     <!-- Z [m] -->
     <g transform="translate(18.737188 156.065937)rotate(-90)scale(0.1 -0.1)">
      <defs>
       <path d="M 5.609375 72.90625 
L 62.890625 72.90625 
L 62.890625 65.375 
L 16.796875 8.296875 
L 64.015625 8.296875 
L 64.015625 0 
L 4.5 0 
L 4.5 7.515625 
L 50.59375 64.59375 
L 5.609375 64.59375 
z
" id="DejaVuSans-90"/>
      </defs>
      <use xlink:href="#DejaVuSans-90"/>
      <use x="68.505859" xlink:href="#DejaVuSans-32"/>
      <use x="100.292969" xlink:href="#DejaVuSans-91"/>
      <use x="139.306641" xlink:href="#DejaVuSans-109"/>
      <use x="236.71875" xlink:href="#DejaVuSans-93"/>
     </g>
    </g>
   </g>
   <g id="line2d_16">
    <path clip-path="url(#p8335c272c1)" d="M 42.25952 175.848252 
L 43.626683 176.711576 
L 44.579911 177.570237 
L 44.665709 177.591821 
L 44.688235 177.533247 
L 44.910284 177.408215 
L 44.682737 177.696412 
L 45.04771 178.142155 
L 46.550138 179.445404 
L 50.026759 182.528219 
L 52.911556 185.165706 
L 54.921843 186.492656 
L 56.444428 187.236642 
L 59.099713 188.201436 
L 62.363031 188.928433 
L 66.492888 189.576142 
L 73.683041 190.383344 
L 83.138876 191.055828 
L 114.392225 192.742845 
L 148.9744 194.052745 
L 154.229582 194.579997 
L 159.452293 195.331758 
L 164.243501 196.325048 
L 168.544247 197.488967 
L 183.318671 201.911375 
L 187.697574 202.931219 
L 192.332741 203.810382 
L 196.959593 204.38092 
L 201.731802 204.733993 
L 206.695669 204.893193 
L 214.456374 204.898422 
L 221.793228 204.614679 
L 228.880798 204.090608 
L 233.047769 203.519122 
L 237.192531 202.753169 
L 246.960894 200.724831 
L 251.316044 200.130035 
L 253.0576 200.160836 
L 253.988757 200.360668 
L 255.399086 200.932026 
L 263.041735 200.293923 
L 270.843408 199.884117 
L 277.76805 199.792741 
L 295.627174 200.204046 
L 298.890287 200.213013 
L 301.587122 199.787728 
L 320.117087 195.285769 
L 323.163458 194.910188 
L 334.816581 193.92626 
L 338.15285 193.727129 
L 343.355382 193.699992 
L 347.138323 193.852959 
L 368.331449 195.10843 
L 376.523822 195.126861 
L 386.017705 194.889271 
L 392.699573 194.601603 
L 406.077745 193.937189 
L 412.641953 193.738459 
L 418.603605 193.772999 
L 423.989501 194.102255 
L 429.044547 194.719557 
L 436.478541 195.902244 
L 441.362431 196.6415 
L 446.33359 197.35958 
L 459.351792 198.557358 
L 474.128233 199.425527 
L 486.34488 200.523423 
L 489.918147 200.925377 
L 498.94948 201.471036 
L 503.710113 201.587524 
L 507.782711 201.940442 
L 509.311949 202.343521 
L 509.525766 202.646983 
L 509.449439 202.822715 
L 508.920225 203.129471 
L 507.940536 203.311909 
L 507.452721 203.262325 
L 507.263216 203.016585 
L 507.339017 202.836351 
L 507.961102 202.347558 
L 511.432235 199.831037 
L 512.377328 198.91267 
L 512.948768 198.18361 
L 512.985012 197.897496 
L 512.823642 197.860932 
L 512.281299 198.056502 
L 511.006863 198.857898 
L 509.205242 200.373402 
L 507.91339 201.752793 
L 507.557739 202.452165 
L 507.55086 203.120565 
L 507.791675 203.709262 
L 508.576343 204.271948 
L 508.985159 204.541174 
L 509.171097 205.117058 
L 508.806753 205.636214 
L 507.673242 206.717244 
L 505.848535 208.18918 
L 503.118559 210.585917 
L 502.632954 211.240765 
L 502.766935 211.21845 
L 503.776353 210.341912 
L 505.074816 209.119429 
L 505.251648 208.82494 
L 505.158281 209.00201 
" style="fill:none;stroke:#1f77b4;stroke-linecap:square;stroke-width:1.5;"/>
   </g>
   <g id="line2d_17">
    <path clip-path="url(#p8335c272c1)" d="M 36.229823 170.149889 
L 38.042648 169.835144 
L 40.098053 169.705377 
L 43.954512 169.802033 
L 52.326332 170.428258 
L 55.044363 170.817525 
L 59.255911 171.671614 
L 64.586857 172.970691 
L 69.740935 174.497065 
L 74.378351 176.053481 
L 79.356431 177.949648 
L 83.832938 179.968932 
L 85.848343 181.092306 
L 86.778861 181.763077 
L 87.986499 182.801494 
L 91.649857 184.58379 
L 94.724304 185.649317 
L 98.493782 186.740954 
L 102.326338 187.625224 
L 110.661036 189.365728 
L 113.856777 190.483192 
L 117.068763 191.891979 
L 120.336272 193.511605 
L 125.964383 196.421163 
L 129.567482 198.006155 
L 133.145486 199.354823 
L 136.798054 200.370817 
L 140.540559 201.136116 
L 144.956647 201.834209 
L 159.506521 203.86516 
L 165.434256 204.983112 
L 173.546418 206.868163 
L 197.804837 213.044879 
L 201.546921 213.750592 
L 207.425503 214.59013 
L 213.734525 215.243806 
L 220.005403 215.67523 
L 233.657562 216.343962 
L 236.713795 216.707081 
L 239.298098 217.165915 
L 241.404327 217.780215 
L 242.871257 218.54374 
L 243.421734 218.988183 
L 244.069832 219.926292 
L 244.333772 220.887239 
L 244.294521 221.779536 
L 243.851176 223.386547 
L 243.979816 223.780804 
L 244.450079 224.071976 
L 245.727122 224.467755 
L 247.930232 224.819843 
L 249.705516 224.983378 
L 253.886008 225.04781 
L 266.818638 225.019136 
L 268.81808 225.2735 
L 276.061242 226.307515 
L 302.086096 229.376222 
L 308.009015 229.666455 
L 312.367777 229.645613 
L 317.078181 229.457017 
L 324.405991 228.915386 
L 336.243772 227.985535 
L 340.537372 227.758374 
L 344.61215 227.660258 
L 350.42252 227.889581 
L 354.195729 228.197541 
L 361.712752 229.098685 
L 369.718447 230.023415 
L 376.218935 230.531014 
L 380.980151 230.712856 
L 385.745405 230.624308 
L 390.529819 230.269251 
L 395.050012 229.688403 
L 397.243843 229.285128 
L 401.91328 228.114676 
L 406.404165 226.641465 
L 410.842996 224.955171 
L 417.120618 222.27771 
L 423.094864 219.512732 
L 431.009424 215.439432 
L 437.30885 211.92473 
L 439.966102 210.542355 
L 440.635314 210.338802 
L 440.653475 210.624012 
L 440.381704 211.624716 
L 440.228518 212.613675 
L 440.357963 213.865179 
L 440.510642 214.589901 
L 440.833639 215.304681 
L 441.436541 216.069783 
L 443.391707 217.590396 
L 446.054327 218.991726 
L 449.559041 220.276823 
L 453.904515 221.112079 
L 456.351629 221.344163 
L 461.877494 221.570076 
L 470.40983 221.368448 
L 478.26745 221.049303 
L 485.297003 220.468593 
L 491.204418 219.593873 
L 494.56225 218.837383 
L 498.874753 217.495407 
L 502.07879 216.227642 
L 503.916498 215.474774 
L 504.389081 215.428131 
L 504.430361 215.518988 
L 504.051552 215.955314 
L 502.473714 217.198311 
L 500.565503 218.349913 
L 499.740941 218.669636 
L 499.133773 218.662346 
L 498.877121 218.445079 
L 498.80865 218.22678 
L 499.011354 217.919553 
L 500.411336 216.465851 
L 500.670149 215.451181 
L 500.572788 214.873875 
L 500.427331 214.593581 
L 499.292686 213.440637 
L 498.199179 211.706038 
L 498.145372 211.303888 
L 498.51534 210.458092 
L 499.169843 209.666217 
L 499.245585 209.688123 
L 499.286069 210.722057 
L 499.073603 214.295814 
L 499.073734 215.001005 
L 499.347028 216.273995 
L 500.187444 217.878442 
L 501.026907 218.706147 
L 503.300583 220.083584 
L 503.85192 220.117504 
L 503.734327 219.947136 
L 503.585045 219.899613 
L 502.804655 218.695191 
L 502.425479 218.328049 
L 502.087021 217.818127 
L 501.685811 217.72804 
L 500.651812 218.318025 
L 499.124996 219.371015 
L 498.380937 220.134046 
L 497.969102 221.071285 
L 497.755022 222.062991 
L 497.773465 222.131305 
L 497.84974 222.021697 
L 498.053625 221.528219 
L 498.204974 221.087599 
L 499.620909 221.130214 
L 499.920758 221.356489 
L 499.943749 221.436724 
L 499.943749 221.436724 
" style="fill:none;stroke:#ff7f0e;stroke-linecap:square;stroke-width:1.5;"/>
   </g>
   <g id="line2d_18">
    <path clip-path="url(#p8335c272c1)" d="M 47.72 173.217041 
L 49.224007 173.403708 
L 50.916218 173.436552 
L 58.529474 173.293237 
L 60.356058 173.304683 
L 59.813475 173.397045 
L 59.184368 173.575542 
L 59.238149 173.611822 
L 60.684325 174.589623 
L 62.35596 175.304027 
L 66.788529 176.713712 
L 70.594811 177.537651 
L 75.57312 178.433017 
L 80.211196 178.881198 
L 84.456415 179.044537 
L 92.091123 179.325787 
L 101.156386 179.9649 
L 111.563873 180.758758 
L 117.017507 180.94341 
L 124.5328 181.003012 
L 130.162743 180.892068 
L 137.890169 180.542224 
L 153.75874 179.569168 
L 173.285375 177.661916 
L 173.575366 177.352695 
L 173.795736 176.279885 
L 174.221285 175.99181 
L 175.398581 175.569748 
L 177.190063 175.181911 
L 180.326946 174.837222 
L 183.202661 174.727257 
L 188.648962 174.799968 
L 199.294559 174.964904 
L 212.452472 174.909821 
L 224.547403 175.131503 
L 235.666896 175.542887 
L 255.274 176.342224 
L 263.759253 176.453877 
L 275.634918 176.309976 
L 286.503014 175.914102 
L 295.281014 175.588947 
L 300.281748 175.60618 
L 303.104303 175.794788 
L 305.696981 176.155202 
L 308.019741 176.670069 
L 310.075011 177.330582 
L 312.68511 178.461945 
L 316.507384 180.4343 
L 318.238171 181.553985 
L 319.02198 182.262413 
L 320.697683 184.096955 
L 321.551882 184.541859 
L 322.815405 184.916378 
L 325.683832 185.322202 
L 329.231694 185.465977 
L 332.82836 185.355653 
L 335.980027 185.017744 
L 338.810094 184.472084 
L 339.708413 184.100342 
L 339.611974 184.056939 
L 338.238631 184.359477 
L 336.211915 185.074001 
L 334.67647 185.785527 
L 334.641348 185.862641 
L 335.070024 185.871139 
L 337.274503 185.448842 
L 342.055595 184.133448 
L 349.564927 181.974358 
L 350.976147 181.73517 
L 351.932885 181.760107 
L 352.506511 181.967222 
L 353.470507 182.38706 
L 354.476964 182.526374 
L 355.928072 182.511773 
L 358.929971 182.177858 
L 378.314593 178.962055 
L 382.60348 178.526839 
L 391.266711 177.985731 
L 396.060032 177.390073 
L 407.815377 175.581816 
L 408.011107 175.694081 
L 407.857485 175.883544 
L 407.373094 176.028793 
L 403.094629 177.047842 
L 391.240224 180.045812 
L 386.423867 180.992556 
L 380.25855 181.774336 
L 377.491836 181.938899 
L 375.069537 182.003028 
L 369.545373 181.776795 
L 367.991255 181.921981 
L 366.336724 182.323983 
L 364.426622 183.067397 
L 361.051088 184.691675 
L 356.931541 186.620614 
L 352.379715 188.488506 
L 349.490452 189.388858 
L 348.780487 189.383185 
L 348.710424 188.996067 
L 348.993483 187.270791 
L 348.879766 186.963448 
L 348.622833 186.669689 
L 348.223925 186.455455 
L 347.639681 186.343598 
L 345.933405 186.389526 
L 343.613506 186.69093 
L 340.331895 187.364554 
L 337.53332 188.150804 
L 335.771631 188.847532 
L 335.028947 189.350282 
L 335.032086 189.434239 
L 335.122856 189.419424 
L 335.159201 189.314212 
L 335.25938 188.936067 
L 335.259576 188.852227 
L 335.162354 188.864015 
L 335.212099 188.77655 
L 335.61271 188.610773 
L 338.115923 187.798314 
L 338.905053 186.70678 
L 339.610037 185.250599 
L 339.58449 185.258082 
L 338.468164 185.849609 
L 338.512349 185.713995 
L 338.627434 185.57643 
L 338.482327 185.662783 
L 338.178145 185.841534 
L 338.28786 185.886 
L 339.482915 186.442421 
L 340.254857 186.79814 
L 341.488356 187.186561 
L 343.364982 187.466339 
L 344.901369 187.50477 
L 348.633725 187.233634 
L 353.306395 186.529161 
L 371.447959 183.014282 
L 377.018403 182.255981 
L 379.805066 182.148568 
L 381.580589 182.248767 
L 384.076087 182.708687 
L 386.398292 183.438971 
L 389.403773 184.651186 
L 391.061356 185.144055 
L 392.872229 185.431368 
L 394.977384 185.495064 
L 397.083636 185.400193 
L 399.315484 185.165882 
L 411.189829 183.610793 
L 414.268419 183.51694 
L 417.161134 183.693758 
L 419.881687 184.104564 
L 422.42783 184.655596 
L 424.856089 185.188853 
L 427.407125 185.570422 
L 430.238981 185.764962 
L 434.603328 185.571417 
L 438.15442 185.217454 
L 443.323813 184.565803 
L 449.723016 183.757401 
L 454.43955 183.491364 
L 460.054959 183.620283 
L 471.799352 184.483113 
L 483.670179 185.6031 
L 486.770985 186.093109 
L 488.823876 186.447818 
L 491.81558 186.816305 
L 491.677811 186.939687 
L 490.485925 187.248252 
L 490.126464 187.096988 
L 490.078068 186.926399 
L 490.31351 186.409695 
L 491.235402 185.279183 
L 493.490201 183.089736 
L 495.019101 181.738324 
L 494.697517 181.89549 
L 493.007265 182.792664 
L 491.543772 183.34982 
L 489.10116 184.027453 
L 486.42366 184.494755 
L 481.400745 185.011572 
L 476.597171 185.637277 
L 475.90563 185.885015 
L 475.752846 186.131527 
L 475.877568 186.397374 
L 477.852607 187.621267 
L 478.751132 188.185792 
L 480.459079 189.566592 
L 481.586439 191.281242 
L 481.712056 192.143669 
L 481.465991 193.015953 
L 481.086236 193.710934 
L 480.336916 194.423326 
L 479.698925 194.854737 
L 479.732906 194.74562 
L 479.963536 194.431078 
L 480.404743 194.490999 
L 480.767061 194.548939 
L 480.767061 194.548939 
" style="fill:none;stroke:#2ca02c;stroke-linecap:square;stroke-width:1.5;"/>
   </g>
   <g id="patch_3">
    <path d="M 47.72 246.04 
L 47.72 38.52 
" style="fill:none;stroke:#000000;stroke-linecap:square;stroke-linejoin:miter;stroke-width:0.8;"/>
   </g>
   <g id="patch_4">
    <path d="M 275.19 246.04 
L 275.19 38.52 
" style="fill:none;stroke:#000000;stroke-linecap:square;stroke-linejoin:miter;stroke-width:0.8;"/>
   </g>
   <g id="patch_5">
    <path d="M 47.72 246.04 
L 275.19 246.04 
" style="fill:none;stroke:#000000;stroke-linecap:square;stroke-linejoin:miter;stroke-width:0.8;"/>
   </g>
   <g id="patch_6">
    <path d="M 47.72 38.52 
L 275.19 38.52 
" style="fill:none;stroke:#000000;stroke-linecap:square;stroke-linejoin:miter;stroke-width:0.8;"/>
   </g>
  </g>
  <g id="axes_2">
   <g id="patch_7">
    <path d="M 331.19 246.04 
L 558.66 246.04 
L 558.66 38.52 
L 331.19 38.52 
z
" style="fill:#ffffff;"/>
   </g>
   <g id="matplotlib.axis_3">
    <g id="xtick_7">
     <g id="line2d_19">
      <g>
       <use style="stroke:#000000;stroke-width:0.8;" x="331.19" xlink:href="#m38476fba8b" y="246.04"/>
      </g>
     </g>
     <g id="text_18">
      <!-- 0.20 -->
      <g transform="translate(320.057187 260.638438)scale(0.1 -0.1)">
       <use xlink:href="#DejaVuSans-48"/>
       <use x="63.623047" xlink:href="#DejaVuSans-46"/>
       <use x="95.410156" xlink:href="#DejaVuSans-50"/>
       <use x="159.033203" xlink:href="#DejaVuSans-48"/>
      </g>
     </g>
    </g>
    <g id="xtick_8">
     <g id="line2d_20">
      <g>
       <use style="stroke:#000000;stroke-width:0.8;" x="363.685714" xlink:href="#m38476fba8b" y="246.04"/>
      </g>
     </g>
     <g id="text_19">
      <!-- 0.25 -->
      <g transform="translate(352.552902 260.638438)scale(0.1 -0.1)">
       <use xlink:href="#DejaVuSans-48"/>
       <use x="63.623047" xlink:href="#DejaVuSans-46"/>
       <use x="95.410156" xlink:href="#DejaVuSans-50"/>
       <use x="159.033203" xlink:href="#DejaVuSans-53"/>
      </g>
     </g>
    </g>
    <g id="xtick_9">
     <g id="line2d_21">
      <g>
       <use style="stroke:#000000;stroke-width:0.8;" x="396.181429" xlink:href="#m38476fba8b" y="246.04"/>
      </g>
     </g>
     <g id="text_20">
      <!-- 0.30 -->
      <g transform="translate(385.048616 260.638438)scale(0.1 -0.1)">
       <use xlink:href="#DejaVuSans-48"/>
       <use x="63.623047" xlink:href="#DejaVuSans-46"/>
       <use x="95.410156" xlink:href="#DejaVuSans-51"/>
       <use x="159.033203" xlink:href="#DejaVuSans-48"/>
      </g>
     </g>
    </g>
    <g id="xtick_10">
     <g id="line2d_22">
      <g>
       <use style="stroke:#000000;stroke-width:0.8;" x="428.677143" xlink:href="#m38476fba8b" y="246.04"/>
      </g>
     </g>
     <g id="text_21">
      <!-- 0.35 -->
      <g transform="translate(417.54433 260.638438)scale(0.1 -0.1)">
       <use xlink:href="#DejaVuSans-48"/>
       <use x="63.623047" xlink:href="#DejaVuSans-46"/>
       <use x="95.410156" xlink:href="#DejaVuSans-51"/>
       <use x="159.033203" xlink:href="#DejaVuSans-53"/>
      </g>
     </g>
    </g>
    <g id="xtick_11">
     <g id="line2d_23">
      <g>
       <use style="stroke:#000000;stroke-width:0.8;" x="461.172857" xlink:href="#m38476fba8b" y="246.04"/>
      </g>
     </g>
     <g id="text_22">
      <!-- 0.40 -->
      <g transform="translate(450.040045 260.638438)scale(0.1 -0.1)">
       <use xlink:href="#DejaVuSans-48"/>
       <use x="63.623047" xlink:href="#DejaVuSans-46"/>
       <use x="95.410156" xlink:href="#DejaVuSans-52"/>
       <use x="159.033203" xlink:href="#DejaVuSans-48"/>
      </g>
     </g>
    </g>
    <g id="xtick_12">
     <g id="line2d_24">
      <g>
       <use style="stroke:#000000;stroke-width:0.8;" x="493.668571" xlink:href="#m38476fba8b" y="246.04"/>
      </g>
     </g>
     <g id="text_23">
      <!-- 0.45 -->
      <g transform="translate(482.535759 260.638438)scale(0.1 -0.1)">
       <use xlink:href="#DejaVuSans-48"/>
       <use x="63.623047" xlink:href="#DejaVuSans-46"/>
       <use x="95.410156" xlink:href="#DejaVuSans-52"/>
       <use x="159.033203" xlink:href="#DejaVuSans-53"/>
      </g>
     </g>
    </g>
    <g id="xtick_13">
     <g id="line2d_25">
      <g>
       <use style="stroke:#000000;stroke-width:0.8;" x="526.164286" xlink:href="#m38476fba8b" y="246.04"/>
      </g>
     </g>
     <g id="text_24">
      <!-- 0.50 -->
      <g transform="translate(515.031473 260.638438)scale(0.1 -0.1)">
       <use xlink:href="#DejaVuSans-48"/>
       <use x="63.623047" xlink:href="#DejaVuSans-46"/>
       <use x="95.410156" xlink:href="#DejaVuSans-53"/>
       <use x="159.033203" xlink:href="#DejaVuSans-48"/>
      </g>
     </g>
    </g>
    <g id="xtick_14">
     <g id="line2d_26">
      <g>
       <use style="stroke:#000000;stroke-width:0.8;" x="558.66" xlink:href="#m38476fba8b" y="246.04"/>
      </g>
     </g>
     <g id="text_25">
      <!-- 0.55 -->
      <g transform="translate(547.527187 260.638438)scale(0.1 -0.1)">
       <use xlink:href="#DejaVuSans-48"/>
       <use x="63.623047" xlink:href="#DejaVuSans-46"/>
       <use x="95.410156" xlink:href="#DejaVuSans-53"/>
       <use x="159.033203" xlink:href="#DejaVuSans-53"/>
      </g>
     </g>
    </g>
    <g id="text_26">
     <!-- X [m] -->
     <g transform="translate(431.139062 274.316562)scale(0.1 -0.1)">
      <use xlink:href="#DejaVuSans-88"/>
      <use x="68.505859" xlink:href="#DejaVuSans-32"/>
      <use x="100.292969" xlink:href="#DejaVuSans-91"/>
      <use x="139.306641" xlink:href="#DejaVuSans-109"/>
      <use x="236.71875" xlink:href="#DejaVuSans-93"/>
     </g>
    </g>
   </g>
   <g id="matplotlib.axis_4">
    <g id="ytick_10">
     <g id="line2d_27">
      <g>
       <use style="stroke:#000000;stroke-width:0.8;" x="331.19" xlink:href="#m20a155a8fb" y="246.04"/>
      </g>
     </g>
     <g id="text_27">
      <!-- 0.0 -->
      <g transform="translate(308.286875 249.839219)scale(0.1 -0.1)">
       <use xlink:href="#DejaVuSans-48"/>
       <use x="63.623047" xlink:href="#DejaVuSans-46"/>
       <use x="95.410156" xlink:href="#DejaVuSans-48"/>
      </g>
     </g>
    </g>
    <g id="ytick_11">
     <g id="line2d_28">
      <g>
       <use style="stroke:#000000;stroke-width:0.8;" x="331.19" xlink:href="#m20a155a8fb" y="218.370667"/>
      </g>
     </g>
     <g id="text_28">
      <!-- 0.2 -->
      <g transform="translate(308.286875 222.169885)scale(0.1 -0.1)">
       <use xlink:href="#DejaVuSans-48"/>
       <use x="63.623047" xlink:href="#DejaVuSans-46"/>
       <use x="95.410156" xlink:href="#DejaVuSans-50"/>
      </g>
     </g>
    </g>
    <g id="ytick_12">
     <g id="line2d_29">
      <g>
       <use style="stroke:#000000;stroke-width:0.8;" x="331.19" xlink:href="#m20a155a8fb" y="190.701333"/>
      </g>
     </g>
     <g id="text_29">
      <!-- 0.4 -->
      <g transform="translate(308.286875 194.500552)scale(0.1 -0.1)">
       <use xlink:href="#DejaVuSans-48"/>
       <use x="63.623047" xlink:href="#DejaVuSans-46"/>
       <use x="95.410156" xlink:href="#DejaVuSans-52"/>
      </g>
     </g>
    </g>
    <g id="ytick_13">
     <g id="line2d_30">
      <g>
       <use style="stroke:#000000;stroke-width:0.8;" x="331.19" xlink:href="#m20a155a8fb" y="163.032"/>
      </g>
     </g>
     <g id="text_30">
      <!-- 0.6 -->
      <g transform="translate(308.286875 166.831219)scale(0.1 -0.1)">
       <use xlink:href="#DejaVuSans-48"/>
       <use x="63.623047" xlink:href="#DejaVuSans-46"/>
       <use x="95.410156" xlink:href="#DejaVuSans-54"/>
      </g>
     </g>
    </g>
    <g id="ytick_14">
     <g id="line2d_31">
      <g>
       <use style="stroke:#000000;stroke-width:0.8;" x="331.19" xlink:href="#m20a155a8fb" y="135.362667"/>
      </g>
     </g>
     <g id="text_31">
      <!-- 0.8 -->
      <g transform="translate(308.286875 139.161885)scale(0.1 -0.1)">
       <use xlink:href="#DejaVuSans-48"/>
       <use x="63.623047" xlink:href="#DejaVuSans-46"/>
       <use x="95.410156" xlink:href="#DejaVuSans-56"/>
      </g>
     </g>
    </g>
    <g id="ytick_15">
     <g id="line2d_32">
      <g>
       <use style="stroke:#000000;stroke-width:0.8;" x="331.19" xlink:href="#m20a155a8fb" y="107.693333"/>
      </g>
     </g>
     <g id="text_32">
      <!-- 1.0 -->
      <g transform="translate(308.286875 111.492552)scale(0.1 -0.1)">
       <use xlink:href="#DejaVuSans-49"/>
       <use x="63.623047" xlink:href="#DejaVuSans-46"/>
       <use x="95.410156" xlink:href="#DejaVuSans-48"/>
      </g>
     </g>
    </g>
    <g id="ytick_16">
     <g id="line2d_33">
      <g>
       <use style="stroke:#000000;stroke-width:0.8;" x="331.19" xlink:href="#m20a155a8fb" y="80.024"/>
      </g>
     </g>
     <g id="text_33">
      <!-- 1.2 -->
      <g transform="translate(308.286875 83.823219)scale(0.1 -0.1)">
       <use xlink:href="#DejaVuSans-49"/>
       <use x="63.623047" xlink:href="#DejaVuSans-46"/>
       <use x="95.410156" xlink:href="#DejaVuSans-50"/>
      </g>
     </g>
    </g>
    <g id="ytick_17">
     <g id="line2d_34">
      <g>
       <use style="stroke:#000000;stroke-width:0.8;" x="331.19" xlink:href="#m20a155a8fb" y="52.354667"/>
      </g>
     </g>
     <g id="text_34">
      <!-- 1.4 -->
      <g transform="translate(308.286875 56.153885)scale(0.1 -0.1)">
       <use xlink:href="#DejaVuSans-49"/>
       <use x="63.623047" xlink:href="#DejaVuSans-46"/>
       <use x="95.410156" xlink:href="#DejaVuSans-52"/>
      </g>
     </g>
    </g>
    <g id="text_35">
     <!-- Quaternion -->
     <g transform="translate(302.207187 170.239375)rotate(-90)scale(0.1 -0.1)">
      <defs>
       <path d="M 39.40625 66.21875 
Q 28.65625 66.21875 22.328125 58.203125 
Q 16.015625 50.203125 16.015625 36.375 
Q 16.015625 22.609375 22.328125 14.59375 
Q 28.65625 6.59375 39.40625 6.59375 
Q 50.140625 6.59375 56.421875 14.59375 
Q 62.703125 22.609375 62.703125 36.375 
Q 62.703125 50.203125 56.421875 58.203125 
Q 50.140625 66.21875 39.40625 66.21875 
z
M 53.21875 1.3125 
L 66.21875 -12.890625 
L 54.296875 -12.890625 
L 43.5 -1.21875 
Q 41.890625 -1.3125 41.03125 -1.359375 
Q 40.1875 -1.421875 39.40625 -1.421875 
Q 24.03125 -1.421875 14.8125 8.859375 
Q 5.609375 19.140625 5.609375 36.375 
Q 5.609375 53.65625 14.8125 63.9375 
Q 24.03125 74.21875 39.40625 74.21875 
Q 54.734375 74.21875 63.90625 63.9375 
Q 73.09375 53.65625 73.09375 36.375 
Q 73.09375 23.6875 67.984375 14.640625 
Q 62.890625 5.609375 53.21875 1.3125 
z
" id="DejaVuSans-81"/>
       <path d="M 8.5 21.578125 
L 8.5 54.6875 
L 17.484375 54.6875 
L 17.484375 21.921875 
Q 17.484375 14.15625 20.5 10.265625 
Q 23.53125 6.390625 29.59375 6.390625 
Q 36.859375 6.390625 41.078125 11.03125 
Q 45.3125 15.671875 45.3125 23.6875 
L 45.3125 54.6875 
L 54.296875 54.6875 
L 54.296875 0 
L 45.3125 0 
L 45.3125 8.40625 
Q 42.046875 3.421875 37.71875 1 
Q 33.40625 -1.421875 27.6875 -1.421875 
Q 18.265625 -1.421875 13.375 4.4375 
Q 8.5 10.296875 8.5 21.578125 
z
M 31.109375 56 
z
" id="DejaVuSans-117"/>
       <path d="M 34.28125 27.484375 
Q 23.390625 27.484375 19.1875 25 
Q 14.984375 22.515625 14.984375 16.5 
Q 14.984375 11.71875 18.140625 8.90625 
Q 21.296875 6.109375 26.703125 6.109375 
Q 34.1875 6.109375 38.703125 11.40625 
Q 43.21875 16.703125 43.21875 25.484375 
L 43.21875 27.484375 
z
M 52.203125 31.203125 
L 52.203125 0 
L 43.21875 0 
L 43.21875 8.296875 
Q 40.140625 3.328125 35.546875 0.953125 
Q 30.953125 -1.421875 24.3125 -1.421875 
Q 15.921875 -1.421875 10.953125 3.296875 
Q 6 8.015625 6 15.921875 
Q 6 25.140625 12.171875 29.828125 
Q 18.359375 34.515625 30.609375 34.515625 
L 43.21875 34.515625 
L 43.21875 35.40625 
Q 43.21875 41.609375 39.140625 45 
Q 35.0625 48.390625 27.6875 48.390625 
Q 23 48.390625 18.546875 47.265625 
Q 14.109375 46.140625 10.015625 43.890625 
L 10.015625 52.203125 
Q 14.9375 54.109375 19.578125 55.046875 
Q 24.21875 56 28.609375 56 
Q 40.484375 56 46.34375 49.84375 
Q 52.203125 43.703125 52.203125 31.203125 
z
" id="DejaVuSans-97"/>
       <path d="M 18.3125 70.21875 
L 18.3125 54.6875 
L 36.8125 54.6875 
L 36.8125 47.703125 
L 18.3125 47.703125 
L 18.3125 18.015625 
Q 18.3125 11.328125 20.140625 9.421875 
Q 21.96875 7.515625 27.59375 7.515625 
L 36.8125 7.515625 
L 36.8125 0 
L 27.59375 0 
Q 17.1875 0 13.234375 3.875 
Q 9.28125 7.765625 9.28125 18.015625 
L 9.28125 47.703125 
L 2.6875 47.703125 
L 2.6875 54.6875 
L 9.28125 54.6875 
L 9.28125 70.21875 
z
" id="DejaVuSans-116"/>
       <path d="M 56.203125 29.59375 
L 56.203125 25.203125 
L 14.890625 25.203125 
Q 15.484375 15.921875 20.484375 11.0625 
Q 25.484375 6.203125 34.421875 6.203125 
Q 39.59375 6.203125 44.453125 7.46875 
Q 49.3125 8.734375 54.109375 11.28125 
L 54.109375 2.78125 
Q 49.265625 0.734375 44.1875 -0.34375 
Q 39.109375 -1.421875 33.890625 -1.421875 
Q 20.796875 -1.421875 13.15625 6.1875 
Q 5.515625 13.8125 5.515625 26.8125 
Q 5.515625 40.234375 12.765625 48.109375 
Q 20.015625 56 32.328125 56 
Q 43.359375 56 49.78125 48.890625 
Q 56.203125 41.796875 56.203125 29.59375 
z
M 47.21875 32.234375 
Q 47.125 39.59375 43.09375 43.984375 
Q 39.0625 48.390625 32.421875 48.390625 
Q 24.90625 48.390625 20.390625 44.140625 
Q 15.875 39.890625 15.1875 32.171875 
z
" id="DejaVuSans-101"/>
       <path d="M 41.109375 46.296875 
Q 39.59375 47.171875 37.8125 47.578125 
Q 36.03125 48 33.890625 48 
Q 26.265625 48 22.1875 43.046875 
Q 18.109375 38.09375 18.109375 28.8125 
L 18.109375 0 
L 9.078125 0 
L 9.078125 54.6875 
L 18.109375 54.6875 
L 18.109375 46.1875 
Q 20.953125 51.171875 25.484375 53.578125 
Q 30.03125 56 36.53125 56 
Q 37.453125 56 38.578125 55.875 
Q 39.703125 55.765625 41.0625 55.515625 
z
" id="DejaVuSans-114"/>
       <path d="M 54.890625 33.015625 
L 54.890625 0 
L 45.90625 0 
L 45.90625 32.71875 
Q 45.90625 40.484375 42.875 44.328125 
Q 39.84375 48.1875 33.796875 48.1875 
Q 26.515625 48.1875 22.3125 43.546875 
Q 18.109375 38.921875 18.109375 30.90625 
L 18.109375 0 
L 9.078125 0 
L 9.078125 54.6875 
L 18.109375 54.6875 
L 18.109375 46.1875 
Q 21.34375 51.125 25.703125 53.5625 
Q 30.078125 56 35.796875 56 
Q 45.21875 56 50.046875 50.171875 
Q 54.890625 44.34375 54.890625 33.015625 
z
" id="DejaVuSans-110"/>
       <path d="M 9.421875 54.6875 
L 18.40625 54.6875 
L 18.40625 0 
L 9.421875 0 
z
M 9.421875 75.984375 
L 18.40625 75.984375 
L 18.40625 64.59375 
L 9.421875 64.59375 
z
" id="DejaVuSans-105"/>
       <path d="M 30.609375 48.390625 
Q 23.390625 48.390625 19.1875 42.75 
Q 14.984375 37.109375 14.984375 27.296875 
Q 14.984375 17.484375 19.15625 11.84375 
Q 23.34375 6.203125 30.609375 6.203125 
Q 37.796875 6.203125 41.984375 11.859375 
Q 46.1875 17.53125 46.1875 27.296875 
Q 46.1875 37.015625 41.984375 42.703125 
Q 37.796875 48.390625 30.609375 48.390625 
z
M 30.609375 56 
Q 42.328125 56 49.015625 48.375 
Q 55.71875 40.765625 55.71875 27.296875 
Q 55.71875 13.875 49.015625 6.21875 
Q 42.328125 -1.421875 30.609375 -1.421875 
Q 18.84375 -1.421875 12.171875 6.21875 
Q 5.515625 13.875 5.515625 27.296875 
Q 5.515625 40.765625 12.171875 48.375 
Q 18.84375 56 30.609375 56 
z
" id="DejaVuSans-111"/>
      </defs>
      <use xlink:href="#DejaVuSans-81"/>
      <use x="78.710938" xlink:href="#DejaVuSans-117"/>
      <use x="142.089844" xlink:href="#DejaVuSans-97"/>
      <use x="203.369141" xlink:href="#DejaVuSans-116"/>
      <use x="242.578125" xlink:href="#DejaVuSans-101"/>
      <use x="304.101562" xlink:href="#DejaVuSans-114"/>
      <use x="343.464844" xlink:href="#DejaVuSans-110"/>
      <use x="406.84375" xlink:href="#DejaVuSans-105"/>
      <use x="434.626953" xlink:href="#DejaVuSans-111"/>
      <use x="495.808594" xlink:href="#DejaVuSans-110"/>
     </g>
    </g>
   </g>
   <g id="line2d_35">
    <path clip-path="url(#p37028b454a)" d="M -1 90.331647 
L 1.101349 89.585985 
L 14.285029 84.43586 
L 19.456613 82.701763 
L 26.168777 80.683547 
L 34.289255 78.470591 
L 44.409229 75.930823 
L 56.206641 73.209228 
L 77.118772 68.6393 
L 94.270246 65.073366 
L 111.300318 61.764106 
L 128.47447 58.685908 
L 156.531236 53.986638 
L 177.036366 50.435178 
L 183.110869 51.46845 
L 205.686313 55.819293 
L 230.270319 60.733517 
L 245.306162 64.008732 
L 256.090971 66.53227 
L 266.079669 68.94482 
L 272.094123 70.214722 
L 278.204265 71.072407 
L 289.597181 72.262485 
L 292.03117 72.689546 
L 294.12598 73.205001 
L 296.014066 73.876977 
L 297.438394 74.629906 
L 298.580079 75.529516 
L 299.366526 76.449828 
L 300.40662 78.214115 
L 301.522102 80.623154 
L 302.030029 81.402164 
L 302.7371 82.16067 
L 303.781525 82.946905 
L 305.165092 83.799487 
L 308.753235 85.60728 
L 324.785723 92.53575 
L 336.805136 97.394675 
L 340.040391 98.956358 
L 344.44841 101.326632 
L 349.488737 104.270842 
L 353.505822 106.944962 
L 360.641358 111.997023 
L 366.403624 116.503013 
L 366.896156 117.180267 
L 367.584029 118.747279 
L 368.145853 120.217433 
L 368.597691 122.567789 
L 368.73242 124.309989 
L 368.838768 125.301316 
L 369.622647 126.756939 
L 370.083571 126.801687 
L 374.490399 126.704911 
L 386.041456 126.294582 
L 391.767554 125.938577 
L 396.234936 125.430435 
L 403.274872 124.396677 
L 408.154612 124.022928 
L 414.318155 123.831232 
L 437.198799 123.7228 
L 442.419156 123.256095 
L 448.434675 122.444837 
L 454.745784 121.338628 
L 468.424792 118.542634 
L 476.252153 117.270875 
L 480.49545 116.708982 
L 484.983304 116.236385 
L 494.483755 115.590935 
L 509.497747 115.13642 
L 519.357174 114.805152 
L 528.942003 114.267701 
L 538.292173 113.496751 
L 546.540066 112.474882 
L 554.284573 111.041513 
L 572.291449 107.254038 
L 579.777214 106.110483 
L 583.353298 105.657896 
L 590.97907 104.999065 
L 598.756321 104.5216 
L 624.30598 103.282936 
L 633.797024 102.367714 
L 645.009799 100.902141 
L 658.24873 99.12696 
L 665.698394 98.382015 
L 672.700146 97.895518 
L 676.389666 98.042213 
L 676.460773 98.086135 
L 676.348314 98.142098 
L 674.125093 98.622824 
L 673.406345 98.917679 
L 673.127127 99.24522 
L 673.238812 99.418019 
L 674.155394 99.758309 
L 676.072366 100.173811 
L 677.901147 100.268075 
L 679.269768 100.110827 
L 680.942867 99.863097 
L 681.386207 100.004932 
L 681.557043 100.280879 
L 681.557634 100.704787 
L 681.319871 101.150895 
L 680.520781 101.829793 
L 679.154644 102.603106 
L 676.443173 103.970342 
L 674.78574 105.129132 
L 673.845779 105.944322 
L 673.561079 106.44402 
L 673.523387 106.898364 
L 673.676175 107.765142 
L 673.90576 108.178822 
L 675.664243 110.599347 
L 675.975212 111.795104 
L 675.81619 112.393145 
L 675.168272 113.289928 
L 674.55858 113.885257 
L 673.731261 114.446675 
L 671.042734 115.759972 
L 668.295 116.76678 
L 666.304891 117.509595 
L 666.855801 117.546926 
L 670.163279 117.67986 
L 670.025713 117.655702 
" style="fill:none;stroke:#1f77b4;stroke-linecap:square;stroke-width:1.5;"/>
   </g>
   <g id="line2d_36">
    <path clip-path="url(#p37028b454a)" d="M -1 86.265055 
L 8.964714 83.980263 
L 24.741897 80.582062 
L 42.648439 76.931409 
L 53.584662 74.87688 
L 59.081067 73.969547 
L 69.386632 71.810991 
L 114.829679 61.855646 
L 129.119789 58.584896 
L 141.719976 55.485325 
L 151.909691 53.269593 
L 166.565708 50.4303 
L 181.428149 54.146646 
L 194.011242 57.501984 
L 206.04825 60.924442 
L 217.17055 64.35253 
L 228.271847 67.816867 
L 237.43445 70.500775 
L 256.170091 75.671797 
L 262.305913 77.416306 
L 269.996026 79.888951 
L 278.306802 82.880501 
L 282.573141 84.781509 
L 284.382576 85.827304 
L 285.337484 86.646718 
L 285.610405 87.010383 
L 285.728781 87.767023 
L 285.668541 88.137039 
L 285.015316 89.415002 
L 285.204854 89.298132 
L 285.897741 89.060933 
L 286.822813 88.988989 
L 287.779339 89.300087 
L 288.849343 90.083581 
L 289.897688 91.32924 
L 292.264986 94.416314 
L 293.641112 95.994845 
L 297.920965 100.305089 
L 303.525694 105.866777 
L 307.110228 109.640751 
L 310.971297 113.285957 
L 312.638975 115.086289 
L 314.583488 117.507918 
L 318.855619 123.244969 
L 320.021448 124.189021 
L 321.801601 125.038841 
L 323.886325 125.675541 
L 325.538406 125.989988 
L 327.052613 126.104307 
L 328.784119 126.086013 
L 330.579392 125.92678 
L 336.805256 124.848184 
L 341.534915 124.059554 
L 348.69465 123.309529 
L 353.546621 123.164588 
L 358.328566 123.328103 
L 365.676348 123.663038 
L 373.741823 123.850851 
L 403.704937 124.15094 
L 427.472946 124.790427 
L 433.476731 124.496942 
L 439.150504 123.886833 
L 455.802929 121.760267 
L 467.372488 120.113157 
L 483.483224 117.326563 
L 494.082548 115.529264 
L 501.131914 114.427571 
L 507.791975 113.670435 
L 524.521207 112.066181 
L 537.150975 110.551368 
L 540.310848 110.35103 
L 556.565721 109.920839 
L 568.819005 108.977352 
L 573.971429 108.212266 
L 574.986439 107.890682 
L 574.583779 108.115463 
L 574.358073 108.369624 
L 574.548798 108.704843 
L 574.773755 108.914997 
L 575.24966 109.141424 
L 577.430029 109.682878 
L 580.872929 110.301413 
L 585.452302 110.934594 
L 588.105685 111.211082 
L 591.192239 111.385793 
L 594.508315 111.395229 
L 598.113896 111.226561 
L 602.154998 110.885233 
L 610.362404 109.859889 
L 618.827277 108.530538 
L 622.776921 107.703368 
L 626.787442 106.680322 
L 630.40471 106.668784 
L 637.414946 106.893567 
L 643.906326 106.747633 
L 654.4135 106.06103 
L 662.505341 105.425552 
L 665.488385 105.331886 
L 667.497842 105.43166 
L 668.623227 105.64025 
L 668.953194 105.826051 
L 668.395057 105.965783 
L 662.043793 106.8685 
L 661.34055 107.187362 
L 660.694079 107.75228 
L 660.670154 107.691868 
L 661.527052 106.153572 
L 661.7814 105.780587 
L 663.031555 105.216638 
L 663.41289 105.198305 
L 663.269439 105.070564 
L 662.617182 104.677506 
L 659.772159 103.186655 
L 659.692878 103.091681 
L 660.23799 102.948992 
L 661.034609 102.811204 
L 661.348878 102.528715 
L 661.42796 102.232243 
L 661.22147 101.632239 
L 661.234532 101.448544 
L 661.060536 101.043217 
L 661.060729 100.883363 
L 661.463401 100.611254 
L 662.701671 100.243028 
L 667.712209 99.329506 
L 668.100918 99.090788 
L 668.082007 98.949667 
L 667.41452 98.443334 
L 666.557875 98.103638 
L 664.909369 97.873416 
L 662.637195 97.880497 
L 659.111626 97.711129 
L 659.128196 97.686047 
L 659.417174 97.68482 
L 660.746177 97.720029 
L 661.970723 97.480992 
L 662.342611 97.337064 
L 662.342611 97.337064 
" style="fill:none;stroke:#ff7f0e;stroke-linecap:square;stroke-width:1.5;"/>
   </g>
   <g id="line2d_37">
    <path clip-path="url(#p37028b454a)" d="M -1 80.353657 
L 6.684406 78.202157 
L 14.653252 76.00493 
L 13.481166 76.386037 
L 16.315326 75.856262 
L 23.227742 74.379077 
L 39.766942 70.507505 
L 74.768535 62.241957 
L 100.816075 56.452826 
L 120.317617 52.324269 
L 128.892162 50.577375 
L 131.840464 50.788805 
L 167.395239 57.761363 
L 181.4708 60.351238 
L 181.795494 60.207323 
L 183.45124 60.423245 
L 191.418592 61.778449 
L 200.293857 63.484164 
L 253.853019 74.234328 
L 281.748967 80.247951 
L 291.023868 81.995365 
L 301.845727 83.832723 
L 318.842493 86.446924 
L 347.858617 90.780522 
L 357.858516 92.611717 
L 363.434758 93.844056 
L 368.160231 95.148463 
L 374.228939 97.201271 
L 377.871974 98.616821 
L 381.073745 100.034557 
L 383.930722 101.48896 
L 387.672262 103.682589 
L 389.986963 105.201068 
L 393.018697 107.494832 
L 394.617259 108.94229 
L 395.772124 110.281606 
L 398.241109 113.516131 
L 399.499687 114.355194 
L 400.287799 114.722 
L 402.613765 115.415099 
L 405.587711 116.006177 
L 409.056239 116.472948 
L 412.676292 116.80212 
L 419.314018 117.104177 
L 424.927971 117.300455 
L 425.902683 117.492559 
L 426.251555 117.831044 
L 426.244465 118.051525 
L 425.853572 118.549668 
L 424.577799 119.498792 
L 422.957087 120.546313 
L 420.492311 121.747193 
L 418.785732 122.350494 
L 418.986533 122.357099 
L 427.593204 122.017095 
L 438.210199 121.302793 
L 440.774162 121.273334 
L 443.65966 121.449172 
L 444.722261 121.67184 
L 445.968161 122.203292 
L 447.195019 122.470674 
L 449.008863 122.614843 
L 452.916236 122.648686 
L 471.560472 122.442436 
L 480.92235 122.711426 
L 487.398689 122.904513 
L 493.433 122.751906 
L 498.707388 122.38494 
L 507.503115 121.546707 
L 516.236452 120.734439 
L 520.807287 120.598853 
L 525.098536 120.580896 
L 526.888878 120.428049 
L 526.567104 120.280742 
L 525.4035 119.77103 
L 523.881109 119.529533 
L 520.918446 119.402518 
L 514.914455 119.444026 
L 485.998207 119.893518 
L 461.08738 119.848584 
L 457.697894 120.267878 
L 451.628145 121.317956 
L 444.921476 122.719945 
L 439.502296 123.883412 
L 439.932195 123.758732 
L 438.798327 123.697246 
L 433.800489 123.741014 
L 424.886082 124.05264 
L 419.332282 124.424668 
L 419.559913 124.312685 
L 419.600314 123.801592 
L 419.711037 123.043719 
L 419.558488 122.227679 
L 419.674391 122.368877 
L 420.671508 122.677802 
L 422.256803 122.880808 
L 422.741729 123.246055 
L 423.218159 123.930058 
L 423.39889 124.41586 
L 423.584954 125.877507 
L 423.525964 132.71701 
L 423.644728 145.699049 
L 423.964353 153.312249 
L 424.350651 157.437319 
L 426.033002 171.018241 
L 426.106607 173.99616 
L 425.902279 176.341824 
L 425.366295 179.411761 
L 424.417312 184.406413 
L 424.633298 189.543386 
L 424.564285 189.124107 
L 423.996856 189.138706 
L 425.23384 189.228943 
L 428.874127 189.68514 
L 433.902867 189.890468 
L 441.616295 190.009319 
L 448.771572 189.898743 
L 453.544773 189.612246 
L 459.509376 188.946821 
L 463.783159 188.1883 
L 467.805243 187.464251 
L 470.360089 187.087785 
L 473.016663 186.881998 
L 498.315445 186.297758 
L 509.210603 186.060057 
L 514.07673 185.723669 
L 517.352858 185.345577 
L 531.572412 183.233346 
L 534.610146 183.025714 
L 550.303593 182.579904 
L 554.125485 182.161387 
L 567.730774 180.428691 
L 578.918687 179.208198 
L 591.765337 178.075297 
L 598.614089 177.092834 
L 603.570391 176.358285 
L 608.486647 175.809186 
L 611.677447 175.662287 
L 650.064196 175.338312 
L 650.36655 175.319671 
L 650.199532 175.43155 
L 649.612635 176.909823 
L 647.816337 180.381756 
L 647.860469 180.851302 
L 648.153398 181.344761 
L 649.046758 182.083361 
L 651.096662 183.11199 
L 653.803349 184.283674 
L 654.527841 184.728666 
L 654.986268 185.220408 
L 655.086625 185.778003 
L 654.877737 186.3931 
L 654.269947 187.033954 
L 653.324035 187.708833 
L 651.442366 188.747713 
L 649.097507 189.815328 
L 644.341243 191.666628 
L 633.194313 195.635293 
L 629.072735 197.174423 
L 627.473974 197.974366 
L 626.75504 198.628401 
L 626.743513 198.98015 
L 626.883453 199.120125 
L 627.523528 199.32995 
L 629.142542 199.489435 
L 632.42099 199.492625 
L 635.479999 199.415295 
L 635.117446 199.490707 
L 632.510188 199.875047 
L 634.087641 199.594823 
" style="fill:none;stroke:#2ca02c;stroke-linecap:square;stroke-width:1.5;"/>
   </g>
   <g id="patch_8">
    <path d="M 331.19 246.04 
L 331.19 38.52 
" style="fill:none;stroke:#000000;stroke-linecap:square;stroke-linejoin:miter;stroke-width:0.8;"/>
   </g>
   <g id="patch_9">
    <path d="M 558.66 246.04 
L 558.66 38.52 
" style="fill:none;stroke:#000000;stroke-linecap:square;stroke-linejoin:miter;stroke-width:0.8;"/>
   </g>
   <g id="patch_10">
    <path d="M 331.19 246.04 
L 558.66 246.04 
" style="fill:none;stroke:#000000;stroke-linecap:square;stroke-linejoin:miter;stroke-width:0.8;"/>
   </g>
   <g id="patch_11">
    <path d="M 331.19 38.52 
L 558.66 38.52 
" style="fill:none;stroke:#000000;stroke-linecap:square;stroke-linejoin:miter;stroke-width:0.8;"/>
   </g>
  </g>
  <g id="axes_3">
   <g id="patch_12">
    <path d="M 614.66 246.04 
L 842.13 246.04 
L 842.13 38.52 
L 614.66 38.52 
z
" style="fill:#ffffff;"/>
   </g>
   <g id="matplotlib.axis_5">
    <g id="xtick_15">
     <g id="line2d_38">
      <g>
       <use style="stroke:#000000;stroke-width:0.8;" x="614.66" xlink:href="#m38476fba8b" y="246.04"/>
      </g>
     </g>
     <g id="text_36">
      <!-- 0.55 -->
      <g transform="translate(603.527187 260.638438)scale(0.1 -0.1)">
       <use xlink:href="#DejaVuSans-48"/>
       <use x="63.623047" xlink:href="#DejaVuSans-46"/>
       <use x="95.410156" xlink:href="#DejaVuSans-53"/>
       <use x="159.033203" xlink:href="#DejaVuSans-53"/>
      </g>
     </g>
    </g>
    <g id="xtick_16">
     <g id="line2d_39">
      <g>
       <use style="stroke:#000000;stroke-width:0.8;" x="652.571667" xlink:href="#m38476fba8b" y="246.04"/>
      </g>
     </g>
     <g id="text_37">
      <!-- 0.60 -->
      <g transform="translate(641.438854 260.638438)scale(0.1 -0.1)">
       <use xlink:href="#DejaVuSans-48"/>
       <use x="63.623047" xlink:href="#DejaVuSans-46"/>
       <use x="95.410156" xlink:href="#DejaVuSans-54"/>
       <use x="159.033203" xlink:href="#DejaVuSans-48"/>
      </g>
     </g>
    </g>
    <g id="xtick_17">
     <g id="line2d_40">
      <g>
       <use style="stroke:#000000;stroke-width:0.8;" x="690.483333" xlink:href="#m38476fba8b" y="246.04"/>
      </g>
     </g>
     <g id="text_38">
      <!-- 0.65 -->
      <g transform="translate(679.350521 260.638438)scale(0.1 -0.1)">
       <use xlink:href="#DejaVuSans-48"/>
       <use x="63.623047" xlink:href="#DejaVuSans-46"/>
       <use x="95.410156" xlink:href="#DejaVuSans-54"/>
       <use x="159.033203" xlink:href="#DejaVuSans-53"/>
      </g>
     </g>
    </g>
    <g id="xtick_18">
     <g id="line2d_41">
      <g>
       <use style="stroke:#000000;stroke-width:0.8;" x="728.395" xlink:href="#m38476fba8b" y="246.04"/>
      </g>
     </g>
     <g id="text_39">
      <!-- 0.70 -->
      <g transform="translate(717.262187 260.638438)scale(0.1 -0.1)">
       <use xlink:href="#DejaVuSans-48"/>
       <use x="63.623047" xlink:href="#DejaVuSans-46"/>
       <use x="95.410156" xlink:href="#DejaVuSans-55"/>
       <use x="159.033203" xlink:href="#DejaVuSans-48"/>
      </g>
     </g>
    </g>
    <g id="xtick_19">
     <g id="line2d_42">
      <g>
       <use style="stroke:#000000;stroke-width:0.8;" x="766.306667" xlink:href="#m38476fba8b" y="246.04"/>
      </g>
     </g>
     <g id="text_40">
      <!-- 0.75 -->
      <g transform="translate(755.173854 260.638438)scale(0.1 -0.1)">
       <use xlink:href="#DejaVuSans-48"/>
       <use x="63.623047" xlink:href="#DejaVuSans-46"/>
       <use x="95.410156" xlink:href="#DejaVuSans-55"/>
       <use x="159.033203" xlink:href="#DejaVuSans-53"/>
      </g>
     </g>
    </g>
    <g id="xtick_20">
     <g id="line2d_43">
      <g>
       <use style="stroke:#000000;stroke-width:0.8;" x="804.218333" xlink:href="#m38476fba8b" y="246.04"/>
      </g>
     </g>
     <g id="text_41">
      <!-- 0.80 -->
      <g transform="translate(793.085521 260.638438)scale(0.1 -0.1)">
       <use xlink:href="#DejaVuSans-48"/>
       <use x="63.623047" xlink:href="#DejaVuSans-46"/>
       <use x="95.410156" xlink:href="#DejaVuSans-56"/>
       <use x="159.033203" xlink:href="#DejaVuSans-48"/>
      </g>
     </g>
    </g>
    <g id="xtick_21">
     <g id="line2d_44">
      <g>
       <use style="stroke:#000000;stroke-width:0.8;" x="842.13" xlink:href="#m38476fba8b" y="246.04"/>
      </g>
     </g>
     <g id="text_42">
      <!-- 0.85 -->
      <g transform="translate(830.997187 260.638438)scale(0.1 -0.1)">
       <use xlink:href="#DejaVuSans-48"/>
       <use x="63.623047" xlink:href="#DejaVuSans-46"/>
       <use x="95.410156" xlink:href="#DejaVuSans-56"/>
       <use x="159.033203" xlink:href="#DejaVuSans-53"/>
      </g>
     </g>
    </g>
    <g id="text_43">
     <!-- X [m] -->
     <g transform="translate(714.609062 274.316562)scale(0.1 -0.1)">
      <use xlink:href="#DejaVuSans-88"/>
      <use x="68.505859" xlink:href="#DejaVuSans-32"/>
      <use x="100.292969" xlink:href="#DejaVuSans-91"/>
      <use x="139.306641" xlink:href="#DejaVuSans-109"/>
      <use x="236.71875" xlink:href="#DejaVuSans-93"/>
     </g>
    </g>
   </g>
   <g id="matplotlib.axis_6">
    <g id="ytick_18">
     <g id="line2d_45">
      <g>
       <use style="stroke:#000000;stroke-width:0.8;" x="614.66" xlink:href="#m20a155a8fb" y="230.076923"/>
      </g>
     </g>
     <g id="text_44">
      <!-- −0.4 -->
      <g transform="translate(583.377187 233.876142)scale(0.1 -0.1)">
       <use xlink:href="#DejaVuSans-8722"/>
       <use x="83.789062" xlink:href="#DejaVuSans-48"/>
       <use x="147.412109" xlink:href="#DejaVuSans-46"/>
       <use x="179.199219" xlink:href="#DejaVuSans-52"/>
      </g>
     </g>
    </g>
    <g id="ytick_19">
     <g id="line2d_46">
      <g>
       <use style="stroke:#000000;stroke-width:0.8;" x="614.66" xlink:href="#m20a155a8fb" y="198.150769"/>
      </g>
     </g>
     <g id="text_45">
      <!-- −0.2 -->
      <g transform="translate(583.377187 201.949988)scale(0.1 -0.1)">
       <use xlink:href="#DejaVuSans-8722"/>
       <use x="83.789062" xlink:href="#DejaVuSans-48"/>
       <use x="147.412109" xlink:href="#DejaVuSans-46"/>
       <use x="179.199219" xlink:href="#DejaVuSans-50"/>
      </g>
     </g>
    </g>
    <g id="ytick_20">
     <g id="line2d_47">
      <g>
       <use style="stroke:#000000;stroke-width:0.8;" x="614.66" xlink:href="#m20a155a8fb" y="166.224615"/>
      </g>
     </g>
     <g id="text_46">
      <!-- 0.0 -->
      <g transform="translate(591.756875 170.023834)scale(0.1 -0.1)">
       <use xlink:href="#DejaVuSans-48"/>
       <use x="63.623047" xlink:href="#DejaVuSans-46"/>
       <use x="95.410156" xlink:href="#DejaVuSans-48"/>
      </g>
     </g>
    </g>
    <g id="ytick_21">
     <g id="line2d_48">
      <g>
       <use style="stroke:#000000;stroke-width:0.8;" x="614.66" xlink:href="#m20a155a8fb" y="134.298462"/>
      </g>
     </g>
     <g id="text_47">
      <!-- 0.2 -->
      <g transform="translate(591.756875 138.09768)scale(0.1 -0.1)">
       <use xlink:href="#DejaVuSans-48"/>
       <use x="63.623047" xlink:href="#DejaVuSans-46"/>
       <use x="95.410156" xlink:href="#DejaVuSans-50"/>
      </g>
     </g>
    </g>
    <g id="ytick_22">
     <g id="line2d_49">
      <g>
       <use style="stroke:#000000;stroke-width:0.8;" x="614.66" xlink:href="#m20a155a8fb" y="102.372308"/>
      </g>
     </g>
     <g id="text_48">
      <!-- 0.4 -->
      <g transform="translate(591.756875 106.171526)scale(0.1 -0.1)">
       <use xlink:href="#DejaVuSans-48"/>
       <use x="63.623047" xlink:href="#DejaVuSans-46"/>
       <use x="95.410156" xlink:href="#DejaVuSans-52"/>
      </g>
     </g>
    </g>
    <g id="ytick_23">
     <g id="line2d_50">
      <g>
       <use style="stroke:#000000;stroke-width:0.8;" x="614.66" xlink:href="#m20a155a8fb" y="70.446154"/>
      </g>
     </g>
     <g id="text_49">
      <!-- 0.6 -->
      <g transform="translate(591.756875 74.245373)scale(0.1 -0.1)">
       <use xlink:href="#DejaVuSans-48"/>
       <use x="63.623047" xlink:href="#DejaVuSans-46"/>
       <use x="95.410156" xlink:href="#DejaVuSans-54"/>
      </g>
     </g>
    </g>
    <g id="ytick_24">
     <g id="line2d_51">
      <g>
       <use style="stroke:#000000;stroke-width:0.8;" x="614.66" xlink:href="#m20a155a8fb" y="38.52"/>
      </g>
     </g>
     <g id="text_50">
      <!-- 0.8 -->
      <g transform="translate(591.756875 42.319219)scale(0.1 -0.1)">
       <use xlink:href="#DejaVuSans-48"/>
       <use x="63.623047" xlink:href="#DejaVuSans-46"/>
       <use x="95.410156" xlink:href="#DejaVuSans-56"/>
      </g>
     </g>
    </g>
    <g id="text_51">
     <!-- Y [m] -->
     <g transform="translate(577.2975 155.694844)rotate(-90)scale(0.1 -0.1)">
      <defs>
       <path d="M -0.203125 72.90625 
L 10.40625 72.90625 
L 30.609375 42.921875 
L 50.6875 72.90625 
L 61.28125 72.90625 
L 35.5 34.71875 
L 35.5 0 
L 25.59375 0 
L 25.59375 34.71875 
z
" id="DejaVuSans-89"/>
      </defs>
      <use xlink:href="#DejaVuSans-89"/>
      <use x="61.083984" xlink:href="#DejaVuSans-32"/>
      <use x="92.871094" xlink:href="#DejaVuSans-91"/>
      <use x="131.884766" xlink:href="#DejaVuSans-109"/>
      <use x="229.296875" xlink:href="#DejaVuSans-93"/>
     </g>
    </g>
   </g>
   <g id="line2d_52">
    <path clip-path="url(#p773788c59d)" d="M -1 218.431001 
L 6.630754 219.539938 
L 19.148417 221.124149 
L 33.15162 222.606061 
L 52.8619 224.404705 
L 78.002183 226.657657 
L 112.776882 230.192205 
L 122.735762 230.989053 
L 132.317638 231.562435 
L 141.351133 231.813928 
L 150.32881 231.745287 
L 158.564749 231.33331 
L 165.957597 230.621711 
L 173.043015 229.636739 
L 187.615403 227.213391 
L 210.885097 223.260694 
L 261.662799 215.157328 
L 273.31628 213.189872 
L 283.961865 211.542743 
L 290.896817 210.528623 
L 297.59088 209.390157 
L 303.593031 208.132238 
L 306.036976 207.470976 
L 308.239744 206.755271 
L 309.90146 206.057422 
L 311.233426 205.328057 
L 312.150947 204.66444 
L 313.36439 203.39999 
L 314.665785 201.709375 
L 315.258367 201.26035 
L 316.083283 200.882028 
L 318.915941 200.171449 
L 323.102108 199.407669 
L 333.79973 197.662522 
L 341.806676 196.08314 
L 349.231321 194.282151 
L 355.829325 192.395152 
L 366.360951 188.915865 
L 371.866985 186.808498 
L 376.378193 184.84026 
L 379.269365 183.371472 
L 381.95037 181.800983 
L 384.409201 180.064507 
L 385.899493 178.791371 
L 387.762599 176.864684 
L 389.24365 174.977506 
L 390.360895 173.134315 
L 391.153948 171.526315 
L 391.738034 170.304064 
L 392.393495 169.313342 
L 392.92064 167.750505 
L 393.077823 166.591492 
L 393.201896 165.930769 
L 394.116421 164.926617 
L 395.16999 164.854476 
L 415.631674 164.266639 
L 421.819787 164.318188 
L 426.506601 164.597351 
L 431.743217 165.316938 
L 436.979346 165.92121 
L 443.635717 166.504464 
L 451.774574 166.950601 
L 466.452507 167.480305 
L 475.961249 167.663906 
L 482.787808 167.635649 
L 493.426748 167.298027 
L 513.947739 166.560667 
L 539.787715 166.049357 
L 568.806703 165.633566 
L 590.897536 165.223748 
L 605.060054 164.698068 
L 618.070409 163.899299 
L 630.563357 163.129844 
L 639.29675 162.776977 
L 652.365582 162.547686 
L 665.846733 162.615801 
L 698.93647 163.071099 
L 709.10097 162.861159 
L 718.389348 162.482395 
L 733.913928 161.686098 
L 744.218845 161.41968 
L 749.097978 161.475791 
L 752.094235 161.610479 
L 751.963033 161.54761 
L 750.514981 161.11327 
L 748.881885 160.292015 
L 748.299417 159.571751 
L 748.204982 159.180564 
L 748.335281 158.780051 
L 748.776139 158.375874 
L 752.372672 156.106674 
L 753.774671 154.945227 
L 754.904486 153.639298 
L 756.274046 151.454364 
L 757.840575 148.129114 
L 758.039883 146.994077 
L 758.040573 145.934869 
L 757.763183 144.870292 
L 757.202151 143.869797 
L 756.36295 142.79296 
L 755.237084 141.644294 
L 751.543265 138.319112 
L 749.707828 136.082152 
L 749.043409 135.005159 
L 748.711259 134.017215 
L 748.667285 133.066605 
L 748.845537 131.050369 
L 749.113387 129.925424 
L 749.765336 128.105449 
L 751.290306 124.166336 
L 751.527747 122.530731 
L 751.342222 121.42785 
L 750.858275 120.296852 
L 750.279165 119.221595 
L 749.420481 118.157673 
L 748.296922 117.159845 
L 746.420124 115.724943 
L 743.791099 114.155096 
L 740.245707 112.266007 
L 740.660852 112.190665 
L 742.566843 112.131026 
L 744.443191 112.019757 
L 744.747159 111.97203 
L 744.586665 112.038749 
" style="fill:none;stroke:#1f77b4;stroke-linecap:square;stroke-width:1.5;"/>
   </g>
   <g id="line2d_53">
    <path clip-path="url(#p773788c59d)" d="M -1 221.844306 
L 5.915831 221.932367 
L 14.098192 221.820309 
L 20.341488 221.506723 
L 23.805907 221.161226 
L 25.738195 220.784859 
L 27.12 220.400343 
L 31.817912 219.859261 
L 37.560571 219.658897 
L 47.180455 219.604657 
L 57.495085 219.853245 
L 62.786307 219.954441 
L 68.334904 219.824631 
L 73.728383 219.44604 
L 79.34336 218.761362 
L 86.856418 217.585793 
L 96.857959 216.065476 
L 102.989426 215.432343 
L 107.236125 215.209514 
L 113.529753 215.086775 
L 117.820127 215.155736 
L 122.722462 215.425304 
L 131.046196 216.17503 
L 140.117973 217.048785 
L 150.422026 217.762723 
L 160.611619 218.286028 
L 170.872449 218.507551 
L 178.287809 218.447973 
L 185.602994 218.246226 
L 196.386442 217.649708 
L 203.279625 217.105504 
L 216.255642 215.785808 
L 229.207155 214.42521 
L 239.896858 213.506165 
L 257.993625 212.276184 
L 265.429525 211.776094 
L 272.194786 211.115618 
L 277.885363 210.349189 
L 283.138932 209.389742 
L 287.581269 208.297396 
L 289.510733 207.662089 
L 291.201811 206.967407 
L 292.558665 206.246414 
L 293.723418 205.43264 
L 294.669672 204.554682 
L 295.315555 203.643159 
L 295.783731 202.702399 
L 296.102139 201.752735 
L 296.237437 200.730184 
L 296.169964 198.826091 
L 295.572277 196.345217 
L 295.448657 194.224859 
L 295.628996 193.532169 
L 295.976756 192.859242 
L 296.97922 191.628403 
L 298.632562 189.990334 
L 299.8809 189.136953 
L 303.11811 187.278772 
L 305.471298 186.148782 
L 310.464459 184.257194 
L 317.00331 181.82827 
L 321.185266 180.171974 
L 326.71046 178.130231 
L 329.215775 176.931557 
L 332.896871 174.838569 
L 334.331381 174.000135 
L 335.519575 173.457853 
L 337.180185 172.946403 
L 340.75738 172.140065 
L 346.471472 171.208077 
L 353.364301 170.308706 
L 364.104014 169.173135 
L 375.361058 168.227681 
L 383.825729 167.771684 
L 395.511886 167.403397 
L 413.185777 167.090179 
L 450.414646 166.721533 
L 465.060183 166.762744 
L 481.782544 167.150605 
L 511.769797 167.962232 
L 522.943935 167.836073 
L 555.31397 166.986179 
L 567.111716 166.689968 
L 612.216674 165.538004 
L 619.374704 165.599422 
L 623.179141 165.812011 
L 626.512173 166.146937 
L 631.169822 166.918117 
L 633.341096 167.5293 
L 633.707512 167.854803 
L 633.631569 167.952654 
L 632.974418 167.904303 
L 633.196931 167.880376 
L 634.014604 167.813676 
L 674.979472 166.663636 
L 689.463074 165.972134 
L 710.445744 164.614181 
L 717.504937 164.0086 
L 726.372417 162.962298 
L 731.462889 162.163192 
L 735.812898 161.228872 
L 739.293116 160.218886 
L 741.637483 159.148821 
L 742.452079 158.593012 
L 743.264434 157.562859 
L 743.335393 157.085434 
L 743.145768 156.695402 
L 742.684233 156.254367 
L 741.454323 155.47923 
L 735.912584 152.315619 
L 734.813005 151.200943 
L 734.453974 150.576289 
L 734.042377 149.250288 
L 733.699758 147.294682 
L 733.671847 146.618788 
L 733.781469 145.98732 
L 734.425694 144.041693 
L 734.81058 142.123047 
L 735.209701 140.743485 
L 736.426814 136.470204 
L 736.871705 133.147715 
L 736.86345 132.295679 
L 736.454309 130.557819 
L 732.812267 123.770057 
L 732.531691 122.2212 
L 733.167655 120.757332 
L 733.60873 119.996319 
L 734.097043 118.597339 
L 734.422923 117.175836 
L 734.492514 115.088836 
L 734.127517 112.56308 
L 734.597301 112.018264 
L 735.484614 111.472285 
L 736.730535 111.016395 
L 742.2721 109.599379 
L 742.319008 109.301297 
L 741.704678 108.853123 
L 741.13458 108.603134 
L 740.540854 108.461328 
L 739.683214 108.298598 
L 738.258547 107.585315 
L 736.840185 107.506175 
L 735.026952 107.638385 
L 732.228689 108.1155 
L 731.875297 108.335488 
L 731.892396 108.461024 
L 731.91745 108.463285 
L 732.348343 108.322836 
L 732.634146 108.22459 
L 735.380634 109.370182 
L 735.623046 109.577033 
L 735.623046 109.577033 
" style="fill:none;stroke:#ff7f0e;stroke-linecap:square;stroke-width:1.5;"/>
   </g>
   <g id="line2d_54">
    <path clip-path="url(#p773788c59d)" d="M -1 214.73076 
L 10.824563 215.584687 
L 17.604054 216.270577 
L 34.537051 218.20252 
L 47.286686 219.361812 
L 61.876989 220.393727 
L 80.508754 221.742149 
L 116.703875 224.465487 
L 134.157543 225.521266 
L 162.238753 226.998397 
L 174.35378 227.573144 
L 174.637303 227.730293 
L 174.697016 227.997344 
L 174.984743 228.112862 
L 176.254864 228.234179 
L 180.819486 228.366379 
L 192.854665 228.472053 
L 216.640573 228.378574 
L 233.337805 228.051288 
L 250.07833 227.416682 
L 265.252537 226.611221 
L 281.339345 225.458607 
L 295.12975 224.235328 
L 310.451513 222.816399 
L 324.690681 221.786711 
L 350.043134 220.04278 
L 364.285674 218.870233 
L 376.712115 217.587649 
L 383.814163 216.625584 
L 389.713864 215.569819 
L 397.262153 213.936349 
L 401.718885 212.773035 
L 405.711639 211.542551 
L 409.244583 210.240602 
L 413.731263 208.252225 
L 417.87479 206.096873 
L 421.411813 203.916164 
L 423.276802 202.527725 
L 424.624145 201.203923 
L 426.058724 199.317038 
L 427.504627 197.43856 
L 428.972968 196.152057 
L 429.892433 195.48436 
L 431.144926 194.76531 
L 434.304729 193.313094 
L 438.11473 191.833348 
L 453.774502 186.119448 
L 456.59856 184.860972 
L 458.639299 183.663169 
L 459.776464 182.524763 
L 460.07349 181.950925 
L 460.183481 181.411652 
L 460.175209 180.84605 
L 460.017705 180.289167 
L 459.719168 179.767967 
L 458.787044 178.75365 
L 457.028743 177.380948 
L 454.871746 176.212872 
L 451.533727 174.746073 
L 451.473354 174.542785 
L 451.707622 174.329911 
L 452.210234 174.118653 
L 454.445075 173.659518 
L 472.279292 170.729325 
L 477.126523 169.653104 
L 480.492937 168.662469 
L 483.186188 167.71126 
L 484.617522 167.549149 
L 488.064571 167.551002 
L 495.290444 167.90275 
L 507.101042 168.473441 
L 515.700391 168.591666 
L 523.966075 168.413328 
L 531.521804 168.003937 
L 538.561833 167.319458 
L 544.715286 166.476846 
L 563.23645 163.79651 
L 567.05007 163.445145 
L 570.498502 163.295561 
L 575.504959 163.36776 
L 577.509843 163.572727 
L 577.59369 163.624266 
L 577.546761 163.676516 
L 575.86075 164.461783 
L 574.86194 164.662139 
L 573.095343 164.816102 
L 569.142417 164.8812 
L 561.449758 164.700661 
L 527.362798 163.708228 
L 520.968155 163.777767 
L 515.648001 164.104482 
L 511.472289 164.6294 
L 494.608105 167.086901 
L 481.965056 168.471812 
L 476.998503 168.876487 
L 473.817085 168.860411 
L 462.934722 168.609718 
L 456.444565 168.254787 
L 452.110995 167.970734 
L 452.376565 168.067117 
L 452.376658 168.376498 
L 452.550324 169.000829 
L 452.460613 169.496954 
L 452.374902 169.842282 
L 452.510123 169.716645 
L 453.397588 169.547058 
L 457.079769 169.381332 
L 457.007231 169.260045 
L 458.09189 167.344619 
L 458.802531 166.890476 
L 459.500799 166.687973 
L 460.026134 166.569157 
L 459.894863 166.525889 
L 458.199589 166.212865 
L 458.051532 166.016695 
L 458.106374 165.590446 
L 458.28353 165.041053 
L 458.30416 165.137783 
L 458.318331 165.238206 
L 458.230472 165.232835 
L 458.2489 165.244737 
L 458.075876 165.2439 
L 457.552998 165.216853 
L 459.229528 165.183456 
L 463.243149 164.956208 
L 483.55799 164.34396 
L 492.025569 163.87316 
L 500.797276 163.188802 
L 510.106097 162.346812 
L 514.742774 162.203171 
L 521.110988 162.31994 
L 543.002879 163.065135 
L 553.120517 163.385429 
L 564.602892 163.566664 
L 577.659974 163.355973 
L 588.349815 163.295794 
L 609.369733 163.549665 
L 617.630255 163.193436 
L 625.24257 162.896806 
L 631.610301 162.807879 
L 640.453938 162.919394 
L 657.402741 163.384611 
L 663.086122 163.295938 
L 685.449174 162.881929 
L 696.791215 162.853761 
L 706.425256 162.407189 
L 711.983923 162.170307 
L 717.301639 162.086905 
L 719.866382 162.205963 
L 721.650975 162.357916 
L 721.484877 162.250779 
L 721.359444 161.70871 
L 720.771408 159.526488 
L 719.508863 156.008984 
L 718.840371 153.827666 
L 718.664247 152.472848 
L 718.865689 151.467979 
L 719.372275 150.431595 
L 720.111218 149.350868 
L 721.863735 147.534045 
L 725.143088 144.417124 
L 726.131142 143.187582 
L 726.801813 141.859006 
L 727.040647 141.228964 
L 727.157729 139.895205 
L 726.914026 138.520837 
L 726.204938 137.151894 
L 725.101374 135.757333 
L 723.699445 134.373086 
L 722.069118 132.955607 
L 719.164828 130.853328 
L 715.806477 128.683366 
L 709.044545 124.712674 
L 703.748197 121.899731 
L 698.506877 119.124123 
L 696.80819 118.045654 
L 695.491003 117.009673 
L 694.570678 115.976907 
L 694.104213 115.026534 
L 694.039635 114.570604 
L 694.090765 114.129546 
L 694.254028 113.724917 
L 695.000783 112.988901 
L 696.159567 112.372017 
L 697.649059 111.8742 
L 699.989838 111.337401 
L 702.731777 110.939752 
L 704.283332 110.835591 
L 701.91951 110.930558 
L 700.818553 110.889285 
L 701.457353 111.04431 
L 702.658914 111.567327 
L 702.658914 111.567327 
" style="fill:none;stroke:#2ca02c;stroke-linecap:square;stroke-width:1.5;"/>
   </g>
   <g id="patch_13">
    <path d="M 614.66 246.04 
L 614.66 38.52 
" style="fill:none;stroke:#000000;stroke-linecap:square;stroke-linejoin:miter;stroke-width:0.8;"/>
   </g>
   <g id="patch_14">
    <path d="M 842.13 246.04 
L 842.13 38.52 
" style="fill:none;stroke:#000000;stroke-linecap:square;stroke-linejoin:miter;stroke-width:0.8;"/>
   </g>
   <g id="patch_15">
    <path d="M 614.66 246.04 
L 842.13 246.04 
" style="fill:none;stroke:#000000;stroke-linecap:square;stroke-linejoin:miter;stroke-width:0.8;"/>
   </g>
   <g id="patch_16">
    <path d="M 614.66 38.52 
L 842.13 38.52 
" style="fill:none;stroke:#000000;stroke-linecap:square;stroke-linejoin:miter;stroke-width:0.8;"/>
   </g>
  </g>
  <g id="text_52">
   <!-- Method: none -->
   <g transform="translate(390.6 14.878125)scale(0.12 -0.12)">
    <defs>
     <path d="M 9.8125 72.90625 
L 24.515625 72.90625 
L 43.109375 23.296875 
L 61.8125 72.90625 
L 76.515625 72.90625 
L 76.515625 0 
L 66.890625 0 
L 66.890625 64.015625 
L 48.09375 14.015625 
L 38.1875 14.015625 
L 19.390625 64.015625 
L 19.390625 0 
L 9.8125 0 
z
" id="DejaVuSans-77"/>
     <path d="M 54.890625 33.015625 
L 54.890625 0 
L 45.90625 0 
L 45.90625 32.71875 
Q 45.90625 40.484375 42.875 44.328125 
Q 39.84375 48.1875 33.796875 48.1875 
Q 26.515625 48.1875 22.3125 43.546875 
Q 18.109375 38.921875 18.109375 30.90625 
L 18.109375 0 
L 9.078125 0 
L 9.078125 75.984375 
L 18.109375 75.984375 
L 18.109375 46.1875 
Q 21.34375 51.125 25.703125 53.5625 
Q 30.078125 56 35.796875 56 
Q 45.21875 56 50.046875 50.171875 
Q 54.890625 44.34375 54.890625 33.015625 
z
" id="DejaVuSans-104"/>
     <path d="M 45.40625 46.390625 
L 45.40625 75.984375 
L 54.390625 75.984375 
L 54.390625 0 
L 45.40625 0 
L 45.40625 8.203125 
Q 42.578125 3.328125 38.25 0.953125 
Q 33.9375 -1.421875 27.875 -1.421875 
Q 17.96875 -1.421875 11.734375 6.484375 
Q 5.515625 14.40625 5.515625 27.296875 
Q 5.515625 40.1875 11.734375 48.09375 
Q 17.96875 56 27.875 56 
Q 33.9375 56 38.25 53.625 
Q 42.578125 51.265625 45.40625 46.390625 
z
M 14.796875 27.296875 
Q 14.796875 17.390625 18.875 11.75 
Q 22.953125 6.109375 30.078125 6.109375 
Q 37.203125 6.109375 41.296875 11.75 
Q 45.40625 17.390625 45.40625 27.296875 
Q 45.40625 37.203125 41.296875 42.84375 
Q 37.203125 48.484375 30.078125 48.484375 
Q 22.953125 48.484375 18.875 42.84375 
Q 14.796875 37.203125 14.796875 27.296875 
z
" id="DejaVuSans-100"/>
     <path d="M 11.71875 12.40625 
L 22.015625 12.40625 
L 22.015625 0 
L 11.71875 0 
z
M 11.71875 51.703125 
L 22.015625 51.703125 
L 22.015625 39.3125 
L 11.71875 39.3125 
z
" id="DejaVuSans-58"/>
    </defs>
    <use xlink:href="#DejaVuSans-77"/>
    <use x="86.279297" xlink:href="#DejaVuSans-101"/>
    <use x="147.802734" xlink:href="#DejaVuSans-116"/>
    <use x="187.011719" xlink:href="#DejaVuSans-104"/>
    <use x="250.390625" xlink:href="#DejaVuSans-111"/>
    <use x="311.572266" xlink:href="#DejaVuSans-100"/>
    <use x="375.048828" xlink:href="#DejaVuSans-58"/>
    <use x="408.740234" xlink:href="#DejaVuSans-32"/>
    <use x="440.527344" xlink:href="#DejaVuSans-110"/>
    <use x="503.90625" xlink:href="#DejaVuSans-111"/>
    <use x="565.087891" xlink:href="#DejaVuSans-110"/>
    <use x="628.466797" xlink:href="#DejaVuSans-101"/>
   </g>
  </g>
 </g>
 <defs>
  <clipPath id="p8335c272c1">
   <rect height="207.52" width="227.47" x="47.72" y="38.52"/>
  </clipPath>
  <clipPath id="p37028b454a">
   <rect height="207.52" width="227.47" x="331.19" y="38.52"/>
  </clipPath>
  <clipPath id="p773788c59d">
   <rect height="207.52" width="227.47" x="614.66" y="38.52"/>
  </clipPath>
 </defs>
</svg>
